<?xml version="1.0" encoding="UTF-8"?>
<svg version="1.1" xmlns="http://www.w3.org/2000/svg" width="512" height="512">
<path d="M0 0 C30.03 0 60.06 0 91 0 C91 9.9 91 19.8 91 30 C101.23 30 111.46 30 122 30 C122 39.9 122 49.8 122 60 C131.57 60 141.14 60 151 60 C151 50.1 151 40.2 151 30 C181.03 30 211.06 30 242 30 C242 39.9 242 49.8 242 60 C251.9 60 261.8 60 272 60 C272 69.9 272 79.8 272 90 C281.9 90 291.8 90 302 90 C302 109.8 302 129.6 302 150 C311.9 150 321.8 150 332 150 C332 159.9 332 169.8 332 180 C341.9 180 351.8 180 362 180 C362 210.36 362 240.72 362 272 C352.1 272 342.2 272 332 272 C332 281.9 332 291.8 332 302 C322.1 302 312.2 302 302 302 C302 311.9 302 321.8 302 332 C172.64 332 43.28 332 -90 332 C-90 322.1 -90 312.2 -90 302 C-99.9 302 -109.8 302 -120 302 C-120 292.1 -120 282.2 -120 272 C-129.9 272 -139.8 272 -150 272 C-150 241.64 -150 211.28 -150 180 C-140.1 180 -130.2 180 -120 180 C-120 170.1 -120 160.2 -120 150 C-110.1 150 -100.2 150 -90 150 C-90 130.2 -90 110.4 -90 90 C-80.1 90 -70.2 90 -60 90 C-60 80.1 -60 70.2 -60 60 C-50.1 60 -40.2 60 -30 60 C-30 50.1 -30 40.2 -30 30 C-20.1 30 -10.2 30 0 30 C0 20.1 0 10.2 0 0 Z " fill="#FEFEFE" transform="translate(150,0)"/>
<path d="M0 0 C30.03 0 60.06 0 91 0 C91 9.9 91 19.8 91 30 C101.23 30 111.46 30 122 30 C122 39.9 122 49.8 122 60 C131.57 60 141.14 60 151 60 C151 50.1 151 40.2 151 30 C181.03 30 211.06 30 242 30 C242 39.9 242 49.8 242 60 C251.9 60 261.8 60 272 60 C272 69.9 272 79.8 272 90 C281.9 90 291.8 90 302 90 C302 109.8 302 129.6 302 150 C311.9 150 321.8 150 332 150 C332 159.9 332 169.8 332 180 C341.9 180 351.8 180 362 180 C362 210.36 362 240.72 362 272 C352.1 272 342.2 272 332 272 C332 281.9 332 291.8 332 302 C322.1 302 312.2 302 302 302 C302 311.9 302 321.8 302 332 C172.64 332 43.28 332 -90 332 C-90 322.1 -90 312.2 -90 302 C-99.9 302 -109.8 302 -120 302 C-120 292.1 -120 282.2 -120 272 C-129.9 272 -139.8 272 -150 272 C-150 241.64 -150 211.28 -150 180 C-140.1 180 -130.2 180 -120 180 C-120 170.1 -120 160.2 -120 150 C-110.1 150 -100.2 150 -90 150 C-90 130.2 -90 110.4 -90 90 C-80.1 90 -70.2 90 -60 90 C-60 80.1 -60 70.2 -60 60 C-50.1 60 -40.2 60 -30 60 C-30 50.1 -30 40.2 -30 30 C-20.1 30 -10.2 30 0 30 C0 20.1 0 10.2 0 0 Z M30 30 C30 39.9 30 49.8 30 60 C20.1 60 10.2 60 0 60 C0 69.9 0 79.8 0 90 C-9.9 90 -19.8 90 -30 90 C-30 100.23 -30 110.46 -30 121 C-39.9 121 -49.8 121 -60 121 C-61.32953792 123.65907584 -61.11986031 125.66565368 -61.11352539 128.64306641 C-61.11344986 129.82413971 -61.11337433 131.00521301 -61.11329651 132.22207642 C-61.10813522 133.50230682 -61.10297394 134.78253723 -61.09765625 136.1015625 C-61.0962413 137.40829926 -61.09482635 138.71503601 -61.09336853 140.06137085 C-61.08954894 143.53676258 -61.07972342 147.01211257 -61.06866455 150.48748779 C-61.05843843 154.03331935 -61.05381358 157.57915784 -61.04882812 161.125 C-61.03863122 168.08337021 -61.01905824 175.04162577 -61 182 C-70.57 182 -80.14 182 -90 182 C-90 191.9 -90 201.8 -90 212 C-99.9 212 -109.8 212 -120 212 C-120 221.24 -120 230.48 -120 240 C-110.1 240 -100.2 240 -90 240 C-90 249.9 -90 259.8 -90 270 C-79.77 270 -69.54 270 -59 270 C-59 280.23 -59 290.46 -59 301 C49.57 301 158.14 301 270 301 C270 291.1 270 281.2 270 271 C280.56 271 291.12 271 302 271 C302 261.1 302 251.2 302 241 C311.9 241 321.8 241 332 241 C332 230.44 332 219.88 332 209 C322.43 209 312.86 209 303 209 C303.0625 195.5625 303.0625 195.5625 303.09008789 191.31860352 C303.09258545 190.22475342 303.09508301 189.13090332 303.09765625 188.00390625 C303.10289307 186.87799072 303.10812988 185.7520752 303.11352539 184.59204102 C303.29545448 182.07029129 303.29545448 182.07029129 302 181 C292.1 181 282.2 181 272 181 C272 161.2 272 141.4 272 121 C261.77 120.67 251.54 120.34 241 120 C240.5625 106.0625 240.5625 106.0625 240.43188477 101.66040039 C240.39377686 100.52594482 240.35566895 99.39148926 240.31640625 98.22265625 C240.27974854 97.05484619 240.24309082 95.88703613 240.20532227 94.68383789 C240.29923812 92.08220205 240.29923812 92.08220205 239 91 C236.9291528 90.8415735 234.85321971 90.74875578 232.77734375 90.68359375 C231.64288818 90.64548584 230.50843262 90.60737793 229.33959961 90.56811523 C227.1605603 90.50346069 227.1605603 90.50346069 224.9375 90.4375 C220.338125 90.293125 215.73875 90.14875 211 90 C210.67 80.1 210.34 70.2 210 60 C200.1 60 190.2 60 180 60 C180 92.67 180 125.34 180 159 C170.1 159 160.2 159 150 159 C150 169.56 150 180.12 150 191 C138.45 191 126.9 191 115 191 C115 169.22 115 147.44 115 125 C125.89 125 136.78 125 148 125 C148 113.78 148 102.56 148 91 C129.19 91 110.38 91 91 91 C91 80.77 91 70.54 91 60 C81.43 60 71.86 60 62 60 C62 50.1 62 40.2 62 30 C51.44 30 40.88 30 30 30 Z " fill="#000000" transform="translate(150,0)"/>
<path d="M0 0 C20.13 0 40.26 0 61 0 C61 9.9 61 19.8 61 30 C70.9 30 80.8 30 91 30 C91 50.13 91 70.26 91 91 C81.1 91 71.2 91 61 91 C61 100.9 61 110.8 61 121 C-8.96 121 -78.92 121 -151 121 C-151 110.77 -151 100.54 -151 90 C-81.37 90 -11.74 90 60 90 C60 70.53 60 51.06 60 31 C40.53 31 21.06 31 1 31 C1 40.9 1 50.8 1 61 C-9.23 61 -19.46 61 -30 61 C-30 50.77 -30 40.54 -30 30 C-20.1 30 -10.2 30 0 30 C0 20.1 0 10.2 0 0 Z " fill="#000000" transform="translate(391,391)"/>
<path d="M0 0 C60.06 0 120.12 0 182 0 C182 10.23 182 20.46 182 31 C121.94 31 61.88 31 0 31 C0 20.77 0 10.54 0 0 Z " fill="#000000" transform="translate(150,421)"/>
<path d="M0 0 C50.16 0 100.32 0 152 0 C152 10.23 152 20.46 152 31 C101.84 31 51.68 31 0 31 C0 20.77 0 10.54 0 0 Z " fill="#000000" transform="translate(120,361)"/>
<path d="M0 0 C30.03 0 60.06 0 91 0 C91 10.23 91 20.46 91 31 C60.97 31 30.94 31 0 31 C0 20.77 0 10.54 0 0 Z " fill="#000000" transform="translate(120,481)"/>
<path d="M0 0 C30.03 0 60.06 0 91 0 C91 10.23 91 20.46 91 31 C60.97 31 30.94 31 0 31 C0 20.77 0 10.54 0 0 Z " fill="#000000" transform="translate(30,421)"/>
<path d="M0 0 C10.23 0 20.46 0 31 0 C31 10.23 31 20.46 31 31 C20.77 31 10.54 31 0 31 C0 20.77 0 10.54 0 0 Z " fill="#000000" transform="translate(60,361)"/>
</svg>
