<?xml version="1.0" encoding="UTF-8" standalone="no"?>
<!-- Uploaded to: SVG Repo, www.svgrepo.com, Generator: SVG Repo Mixer Tools -->

<svg
   width="800px"
   height="800px"
   viewBox="0 0 16 16"
   version="1.1"
   id="svg1"
   sodipodi:docname="clear_night.svg"
   inkscape:export-filename="clear_night.svg"
   inkscape:export-xdpi="96"
   inkscape:export-ydpi="96"
   inkscape:version="1.4.3 (0d15f75042, 2025-12-25)"
   xmlns:inkscape="http://www.inkscape.org/namespaces/inkscape"
   xmlns:sodipodi="http://sodipodi.sourceforge.net/DTD/sodipodi-0.dtd"
   xmlns="http://www.w3.org/2000/svg"
   xmlns:svg="http://www.w3.org/2000/svg">
  <defs
     id="defs1" />
  <sodipodi:namedview
     id="namedview1"
     pagecolor="#ffffff"
     bordercolor="#000000"
     borderopacity="0.25"
     inkscape:showpageshadow="2"
     inkscape:pageopacity="0.0"
     inkscape:pagecheckerboard="0"
     inkscape:deskcolor="#d1d1d1"
     inkscape:zoom="1.41875"
     inkscape:cx="400.35242"
     inkscape:cy="400"
     inkscape:window-width="1266"
     inkscape:window-height="1378"
     inkscape:window-x="0"
     inkscape:window-y="0"
     inkscape:window-maximized="1"
     inkscape:current-layer="svg1" />
  <path
     d="m 6.816406 1.011719 c -3.308594 0.570312 -5.839844 3.472656 -5.839844 6.941406 c 0 3.871094 3.160157 7.046875 7.023438 7.046875 c 1.753906 0 3.367188 -0.660156 4.597656 -1.734375 c 0.605469 -0.527344 0.371094 -1.515625 -0.40625 -1.722656 c -2.8125 -0.734375 -4.914062 -3.304688 -4.914062 -6.367188 c 0 -0.984375 0.222656 -1.910156 0.613281 -2.757812 c 0.339844 -0.730469 -0.28125 -1.539063 -1.074219 -1.40625 z m 0 0"
     fill="#2e3436"
     id="path1" />
  <path
     style="fill:#000000;stroke:#ff0e0e;stroke-width:0.351013;stroke-linecap:round;stroke-linejoin:bevel;fill-opacity:1"
     d="M 384.14097,749.22805 C 242.15476,742.41512 118.17357,650.17305 69.515009,515.14616 60.297505,489.5677 53.769014,460.14453 50.61278,429.95595 49.394944,418.30764 49.392881,376.88574 50.609551,365.11013 56.735457,305.82018 75.511948,252.77733 107.497,204.40529 159.16,126.27366 238.71361,72.121375 329.79606,53.085934 c 20.10606,-4.201993 29.91311,-3.505336 42.36253,3.009283 5.66007,2.961841 11.15406,7.412859 15.27333,12.373883 4.25193,5.12077 9.06373,15.241453 10.41109,21.897661 2.32634,11.492569 1.01059,19.217169 -6.09802,35.800639 -14.44922,33.70817 -21.96866,61.59409 -26.41856,97.97357 -1.78321,14.57828 -1.7717,55.05113 0.0199,70.13216 8.94395,75.28564 39.80411,140.71351 91.39374,193.76755 41.10637,42.27322 90.72478,71.95009 146.85037,87.83153 13.4741,3.81267 20.377,7.27988 26.97898,13.55113 10.06753,9.56316 15.04225,20.43233 15.61651,34.12019 0.4942,11.77965 -2.06568,21.15965 -8.199,30.04303 -5.63869,8.16697 -25.48955,24.4237 -47.32616,38.75743 -13.556,8.89826 -21.64275,13.49629 -37.65949,21.41276 -52.39665,25.89766 -111.15331,38.24025 -168.86033,35.4713 z"
     id="path2"
     transform="scale(0.02)" />
</svg>
