<?xml version="1.0" encoding="UTF-8" standalone="no"?>
<!-- Uploaded to: SVG Repo, www.svgrepo.com, Generator: SVG Repo Mixer Tools -->

<svg
   width="800px"
   height="800px"
   viewBox="0 0 16 16"
   version="1.1"
   id="svg1"
   sodipodi:docname="cloudy_2.svg"
   inkscape:export-filename="cloudy_2.svg"
   inkscape:export-xdpi="96"
   inkscape:export-ydpi="96"
   inkscape:version="1.4.3 (0d15f75042, 2025-12-25)"
   xmlns:inkscape="http://www.inkscape.org/namespaces/inkscape"
   xmlns:sodipodi="http://sodipodi.sourceforge.net/DTD/sodipodi-0.dtd"
   xmlns="http://www.w3.org/2000/svg"
   xmlns:svg="http://www.w3.org/2000/svg">
  <defs
     id="defs1" />
  <sodipodi:namedview
     id="namedview1"
     pagecolor="#ffffff"
     bordercolor="#000000"
     borderopacity="0.25"
     inkscape:showpageshadow="2"
     inkscape:pageopacity="0.0"
     inkscape:pagecheckerboard="0"
     inkscape:deskcolor="#d1d1d1"
     inkscape:zoom="0.709375"
     inkscape:cx="473.65639"
     inkscape:cy="88.105727"
     inkscape:window-width="1266"
     inkscape:window-height="1378"
     inkscape:window-x="0"
     inkscape:window-y="0"
     inkscape:window-maximized="1"
     inkscape:current-layer="svg1" />
  <path
     d="m 6.5 1 c -0.277344 0 -0.5 0.222656 -0.5 0.5 v 1 c 0 0.277344 0.222656 0.5 0.5 0.5 h 1 c 0.277344 0 0.5 -0.222656 0.5 -0.5 v -1 c 0 -0.277344 -0.222656 -0.5 -0.5 -0.5 z m -3.742188 1.546875 c -0.128906 0 -0.253906 0.050781 -0.351562 0.152344 l -0.707031 0.707031 c -0.199219 0.195312 -0.199219 0.507812 0 0.703125 l 0.707031 0.707031 c 0.195312 0.199219 0.507812 0.199219 0.707031 0 l 0.707031 -0.707031 c 0.195313 -0.195313 0.195313 -0.507813 0 -0.703125 l -0.707031 -0.707031 c -0.101562 -0.101563 -0.226562 -0.152344 -0.355469 -0.152344 z m 8.484376 0 c -0.128907 0 -0.253907 0.050781 -0.355469 0.152344 l -0.707031 0.707031 c -0.195313 0.195312 -0.195313 0.507812 0 0.703125 l 0.707031 0.707031 c 0.199219 0.199219 0.511719 0.199219 0.707031 0 l 0.707031 -0.707031 c 0.199219 -0.195313 0.199219 -0.507813 0 -0.703125 l -0.707031 -0.707031 c -0.097656 -0.101563 -0.222656 -0.152344 -0.351562 -0.152344 z m -4.253907 1.457031 c -2.195312 0 -4 1.808594 -4 4 c 0 1.386719 0.71875 2.609375 1.804688 3.328125 c 0.316406 -0.136719 0.660156 -0.226562 1.019531 -0.253906 c 0.609375 -1.785156 2.238281 -3.074219 4.1875 -3.078125 c 0.339844 0 0.667969 0.046875 0.980469 0.128906 c 0.003906 -0.042968 0.007812 -0.082031 0.007812 -0.125 c 0 -2.191406 -1.804687 -4 -4 -4 z m -6.488281 2.996094 c -0.277344 0 -0.5 0.222656 -0.5 0.5 v 1 c 0 0.277344 0.222656 0.5 0.5 0.5 h 1 c 0.277344 0 0.5 -0.222656 0.5 -0.5 v -1 c 0 -0.277344 -0.222656 -0.5 -0.5 -0.5 z m 12 0 c -0.277344 0 -0.5 0.222656 -0.5 0.5 v 1 c 0 0.019531 0.003906 0.035156 0.007812 0.054688 c 0.21875 0.128906 0.429688 0.28125 0.628907 0.445312 h 0.863281 c 0.277344 0 0.5 -0.222656 0.5 -0.5 v -1 c 0 -0.277344 -0.222656 -0.5 -0.5 -0.5 z m -2.5 2 c -1.765625 0.003906 -3.253906 1.320312 -3.46875 3.074219 c -0.175781 -0.050781 -0.351562 -0.074219 -0.53125 -0.074219 c -1.105469 0 -2 0.894531 -2 2 s 0.894531 2 2 2 h 7.5 c 1.378906 0 2.5 -1.121094 2.5 -2.5 s -1.121094 -2.5 -2.5 -2.5 c -0.109375 0 -0.21875 0.007812 -0.328125 0.023438 c -0.574219 -1.234376 -1.8125 -2.023438 -3.171875 -2.023438 z m -7.242188 2.035156 c -0.128906 0 -0.253906 0.046875 -0.351562 0.148438 l -0.707031 0.707031 c -0.199219 0.195313 -0.199219 0.507813 0 0.703125 l 0.707031 0.707031 c 0.183594 0.1875 0.480469 0.195313 0.675781 0.023438 c 0.128907 -0.53125 0.40625 -1 0.785157 -1.371094 c -0.011719 -0.023437 -0.03125 -0.046875 -0.046876 -0.0625 l -0.707031 -0.707031 c -0.101562 -0.101563 -0.226562 -0.148438 -0.355469 -0.148438 z m 0 0"
     fill="#2e3436"
     id="path1" />
  <path
     style="fill:#000000;stroke-width:0.704846"
     d="m 292.51101,799.242 c -39.6461,-2.96762 -74.33001,-29.93899 -86.94965,-67.61496 -4.90673,-14.64905 -6.40649,-33.96485 -3.76083,-48.4366 5.75061,-31.4557 25.78649,-58.33932 53.97302,-72.41958 7.6469,-3.81991 20.50387,-7.86224 29.33658,-9.22363 12.11973,-1.86803 27.42906,-1.04544 39.92591,2.14528 1.80362,0.4605 1.88016,0.3538 2.35406,-3.28228 0.88125,-6.7615 3.87956,-19.80967 6.44229,-28.03587 14.54049,-46.67396 49.75006,-86.18731 94.92578,-106.52883 66.71625,-30.04071 144.62747,-15.25062 195.79855,37.16894 12.23291,12.53138 23.12516,27.49805 30.24504,41.55871 l 3.17181,6.26382 16.21145,0.0195 c 14.88961,0.0179 16.9332,0.17408 25.06316,1.91505 44.63395,9.55803 80.2101,41.08343 94.06179,83.35177 4.74492,14.47907 5.63563,20.69307 5.60727,39.11894 -0.0223,14.51712 -0.22323,17.47839 -1.62578,23.96476 -9.6514,44.63481 -40.91318,79.92789 -83.28265,94.02219 -10.18797,3.38906 -19.96677,5.2496 -31.85904,6.06163 -12.09452,0.82583 -378.56724,0.77986 -389.63876,-0.0489 z"
     id="path2"
     transform="scale(0.02)" />
  <path
     style="fill:#e20000;fill-opacity:1;stroke:#ff0e0e;stroke-width:0.351013;stroke-linecap:round;stroke-linejoin:bevel;stroke-dasharray:none;stroke-opacity:1"
     d="m 234.71366,562.6875 c -42.08458,-30.33923 -70.31117,-73.06657 -80.66496,-122.10471 -2.78417,-13.18651 -3.95051,-25.00175 -3.97136,-40.23037 -0.0311,-22.74215 2.59713,-39.82952 9.29117,-60.40535 9.91435,-30.47425 25.6913,-56.36063 48.41112,-79.4316 30.79292,-31.26885 69.69444,-51.17482 113.27764,-57.96435 10.6504,-1.65916 44.13524,-1.88592 54.27313,-0.36754 55.93784,8.37793 103.182,36.86579 135.77172,81.86928 23.42011,32.3411 36.237,69.64934 37.74251,109.86343 0.4432,11.83838 0.41387,12.22837 -0.88919,11.82069 -0.74113,-0.23187 -4.51932,-1.07657 -8.39597,-1.8771 -35.07521,-7.24301 -72.71139,-4.79613 -108.07828,7.0266 -62.76199,20.98059 -114.11753,71.11034 -138.31809,135.0166 -1.46804,3.87666 -3.08758,7.256 -3.59896,7.50965 -0.51138,0.25365 -4.16952,0.82336 -8.12919,1.26602 -9.14242,1.02205 -21.54025,4.04709 -31.91953,7.78829 -4.45815,1.60693 -8.5815,3.05706 -9.163,3.2225 -0.58149,0.16545 -3.11894,-1.18548 -5.63876,-3.00204 z"
     id="path27"
     transform="scale(0.02)" />
  <path
     style="fill:#e20000;fill-opacity:1;stroke:#ff0e0e;stroke-width:0.351013;stroke-linecap:round;stroke-linejoin:bevel;stroke-dasharray:none;stroke-opacity:1"
     d="m 131.80617,247.01085 c -2.13216,-0.59092 -5.14538,-1.89119 -6.69604,-2.88948 -1.55066,-0.99828 -11.74337,-10.73927 -22.65046,-21.64663 -21.094887,-21.09541 -23.008141,-23.54678 -24.21113,-31.02066 -0.718598,-4.46447 0.256196,-10.20958 2.46187,-14.50944 1.097889,-2.14028 8.83887,-10.35703 23.37306,-24.80959 l 21.73151,-21.60944 5.17752,-1.56338 c 4.01723,-1.21303 6.06928,-1.45858 9.15673,-1.09571 8.25324,0.97001 9.97692,2.27893 32.38291,24.59098 24.19067,24.08926 25.19193,25.49693 25.15726,35.36909 -0.0349,9.92803 -0.7003,10.87177 -24.50988,34.76088 -17.23075,17.28832 -21.26873,20.98384 -24.80948,22.70551 -5.32164,2.58762 -11.21885,3.19923 -16.56387,1.71787 z"
     id="path28"
     transform="scale(0.02)" />
  <path
     style="fill:#e20000;fill-opacity:1;stroke:#ff0e0e;stroke-width:0.351013;stroke-linecap:round;stroke-linejoin:bevel;stroke-dasharray:none;stroke-opacity:1"
     d="m 317.18441,148.26611 c -6.64975,-2.35692 -11.57375,-6.91302 -14.742,-13.64056 l -1.82567,-3.87665 V 100.08811 69.427313 l 2.0477,-4.434526 c 2.5544,-5.531817 7.99026,-10.689004 13.63747,-12.938327 3.92488,-1.563305 4.87925,-1.621148 30.76955,-1.864884 28.61985,-0.269433 33.40251,0.09655 39.11953,2.993588 4.07877,2.066869 9.48491,7.774865 11.5406,12.184977 1.54034,3.304503 1.56356,3.814981 1.56356,34.367542 V 130.7489 l -1.87517,4.0001 c -2.50775,5.3495 -6.92636,9.9947 -11.76958,12.37314 l -3.97639,1.95275 -30.66079,0.15704 c -26.52757,0.13587 -31.08786,0.006 -33.82881,-0.96582 z"
     id="path29"
     transform="scale(0.02)" />
  <path
     style="fill:#e20000;fill-opacity:1;stroke:#ff0e0e;stroke-width:0.351013;stroke-linecap:round;stroke-linejoin:bevel;stroke-dasharray:none;stroke-opacity:1"
     d="m 556.28557,247.01293 c -2.04294,-0.55 -4.73897,-1.51946 -5.99119,-2.15434 -1.25222,-0.63489 -11.5681,-10.39308 -22.92419,-21.68488 -22.28446,-22.1583 -24.21477,-24.6431 -25.18663,-32.42154 -0.59396,-4.75393 1.06023,-11.53449 3.88556,-15.92696 1.13039,-1.75739 11.03123,-12.10839 22.00188,-23.00222 23.22369,-23.0611 24.43153,-23.90755 34.04354,-23.85775 9.84515,0.051 10.81442,0.74177 34.94478,24.90392 22.0353,22.06433 23.13063,23.45626 24.73171,31.42863 0.86259,4.29514 0.0236,9.39984 -2.37813,14.46873 -1.76979,3.73524 -39.14662,41.82848 -44.26569,45.11413 -3.26739,2.09718 -10.18368,4.26091 -13.35697,4.17869 -0.98463,-0.0255 -3.46173,-0.49639 -5.50467,-1.04641 z"
     id="path30"
     transform="scale(0.02)" />
  <path
     style="fill:#e20000;fill-opacity:1;stroke:#ff0e0e;stroke-width:0.351013;stroke-linecap:round;stroke-linejoin:bevel;stroke-dasharray:none;stroke-opacity:1"
     d="m 627.31278,445.91284 c -5.53571,-4.52047 -20.52217,-15.05929 -24.19358,-17.01347 l -2.64715,-1.409 0.2045,-29.60422 c 0.20338,-29.44072 0.21363,-29.62257 1.85688,-32.92851 2.63808,-5.30737 6.73342,-9.41779 11.93621,-11.9802 l 4.70381,-2.31665 29.19744,-0.21274 c 27.79216,-0.20251 29.42732,-0.14292 33.97378,1.23802 8.5688,2.6027 15.08576,10.1273 16.79932,19.39683 1.02426,5.54073 1.02426,52.29347 0,57.8342 -1.69554,9.17202 -8.20313,16.75069 -16.61405,19.34856 -4.24109,1.30994 -6.48907,1.42444 -27.62621,1.40721 l -23.00946,-0.0188 z"
     id="path31"
     transform="scale(0.02)" />
  <path
     style="fill:#e20000;fill-opacity:1;stroke:#ff0e0e;stroke-width:0.351013;stroke-linecap:round;stroke-linejoin:bevel;stroke-dasharray:none;stroke-opacity:1"
     d="m 131.10132,671.09907 c -0.96916,-0.31795 -3.03084,-1.23865 -4.5815,-2.04602 -3.81946,-1.98863 -44.194554,-42.63252 -46.037634,-46.34413 -2.001301,-4.03025 -2.923454,-9.87739 -2.233646,-14.163 1.202989,-7.47388 3.116243,-9.92525 24.21113,-31.02066 10.90709,-10.90736 21.0998,-20.64837 22.65046,-21.64669 1.55066,-0.99832 4.88106,-2.34263 7.40088,-2.98737 3.87118,-0.9905 5.27964,-1.04387 9.08442,-0.34425 2.47661,0.45539 5.807,1.48 7.40088,2.2769 2.80447,1.40217 43.4266,41.07507 43.4266,42.41182 0,0.33888 -2.09761,2.88175 -4.66135,5.65083 -13.94022,15.05673 -24.3654,32.8977 -30.9938,53.04077 -1.77123,5.38261 -3.57244,10.21071 -4.00268,10.72912 -0.43024,0.51841 -2.38809,1.76696 -4.35076,2.77457 -2.85809,1.46728 -4.76123,1.87322 -9.55969,2.03909 -3.29516,0.1139 -6.78415,-0.053 -7.75331,-0.37098 z"
     id="path32"
     transform="scale(0.02)" />
  <path
     style="fill:#e20000;fill-opacity:1;stroke:#ff0e0e;stroke-width:0.351013;stroke-linecap:round;stroke-linejoin:bevel;stroke-dasharray:none;stroke-opacity:1"
     d="M 18.678414,448.71807 C 10.877777,446.20381 4.8634036,440.7679 1.9762129,433.62229 0.37062125,429.64856 0.35242291,429.27175 0.35242291,400 c 0,-29.33327 0.0149324,-29.6405 1.63566449,-33.65403 C 4.2715571,360.69125 9.441144,355.2517 14.948734,352.7085 l 4.434526,-2.04771 h 30.660793 30.660793 l 4.000106,1.87518 c 5.34949,2.50775 9.994692,6.92636 12.373131,11.76958 l 1.952754,3.97639 V 400 431.71806 l -1.952754,3.9764 c -2.378439,4.84321 -7.023641,9.26183 -12.373131,11.76957 l -4.000106,1.87518 -29.603524,0.14379 c -22.564977,0.10961 -30.273863,-0.0723 -32.422908,-0.76493 z"
     id="path33"
     transform="scale(0.02)" />
</svg>
