<?xml version="1.0" encoding="UTF-8" standalone="no"?>
<!-- Uploaded to: SVG Repo, www.svgrepo.com, Generator: SVG Repo Mixer Tools -->

<svg
   width="800px"
   height="800px"
   viewBox="0 0 16 16"
   version="1.1"
   id="svg1"
   sodipodi:docname="cloudy_night.svg"
   inkscape:export-filename="cloudy_night.svg"
   inkscape:export-xdpi="96"
   inkscape:export-ydpi="96"
   inkscape:version="1.4.3 (0d15f75042, 2025-12-25)"
   xmlns:inkscape="http://www.inkscape.org/namespaces/inkscape"
   xmlns:sodipodi="http://sodipodi.sourceforge.net/DTD/sodipodi-0.dtd"
   xmlns="http://www.w3.org/2000/svg"
   xmlns:svg="http://www.w3.org/2000/svg">
  <defs
     id="defs1" />
  <sodipodi:namedview
     id="namedview1"
     pagecolor="#ffffff"
     bordercolor="#000000"
     borderopacity="0.25"
     inkscape:showpageshadow="2"
     inkscape:pageopacity="0.0"
     inkscape:pagecheckerboard="0"
     inkscape:deskcolor="#d1d1d1"
     inkscape:zoom="0.25080194"
     inkscape:cx="-490.42683"
     inkscape:cy="759.56351"
     inkscape:window-width="1266"
     inkscape:window-height="1378"
     inkscape:window-x="0"
     inkscape:window-y="0"
     inkscape:window-maximized="1"
     inkscape:current-layer="svg1" />
  <path
     d="m 6.960938 1 c -0.046876 0 -0.09375 0.003906 -0.144532 0.011719 c -3.308594 0.570312 -5.839844 3.472656 -5.839844 6.941406 c 0 2 0.84375 3.808594 2.1875 5.09375 c 0.390626 -1.09375 1.433594 -1.878906 2.648438 -1.96875 c 0.402344 -1.179687 1.253906 -2.105469 2.351562 -2.605469 c -0.5625 -0.96875 -0.886718 -2.09375 -0.886718 -3.296875 c 0 -0.984375 0.222656 -1.910156 0.613281 -2.757812 c 0.320313 -0.683594 -0.207031 -1.441407 -0.929687 -1.421875 z m 3.039062 8 c -1.765625 0.003906 -3.253906 1.320312 -3.472656 3.074219 c -0.171875 -0.050781 -0.347656 -0.074219 -0.527344 -0.074219 c -1.105469 0 -2 0.894531 -2 2 s 0.894531 2 2 2 h 7.5 c 1.378906 0 2.5 -1.121094 2.5 -2.5 s -1.121094 -2.5 -2.5 -2.5 c -0.109375 0 -0.21875 0.007812 -0.328125 0.023438 c -0.574219 -1.234376 -1.8125 -2.023438 -3.171875 -2.023438 z m 0 0"
     fill="#2e3436"
     id="path1" />
  <path
     style="fill:#000000;stroke:#ff0e0e;stroke-width:0.351013;stroke-linecap:round;stroke-linejoin:bevel;fill-opacity:1"
     d="m 292.51101,799.242 c -39.6461,-2.96762 -74.33001,-29.93899 -86.94965,-67.61496 -4.90673,-14.64905 -6.40649,-33.96485 -3.76083,-48.4366 4.96535,-27.16036 20.57704,-51.07457 43.13339,-66.07232 23.45819,-15.59739 52.53555,-20.45969 80.17621,-13.40701 1.76234,0.44967 1.93833,0.31968 1.93833,-1.4316 0,-2.8178 3.17878,-18.03513 5.28218,-25.2866 16.69565,-57.55845 61.86371,-102.86797 119.19587,-119.56918 73.7797,-21.49247 152.59147,7.92445 194.77308,72.70011 2.9317,4.50203 6.75768,11.04532 8.50217,14.54063 l 3.17181,6.3551 11.98238,-0.35611 c 17.31832,-0.51469 28.9388,1.11134 44.24057,6.1905 37.05031,12.29822 67.00081,42.30775 79.11345,79.26939 4.74492,14.47907 5.63563,20.69307 5.60727,39.11894 -0.0223,14.51712 -0.22323,17.47839 -1.62578,23.96476 -9.6514,44.63481 -40.91318,79.92789 -83.28265,94.02219 -10.18797,3.38906 -19.96677,5.2496 -31.85904,6.06163 -12.09452,0.82583 -378.56724,0.77986 -389.63876,-0.0489 z"
     id="path2"
     transform="scale(0.02)" />
  <path
     style="fill:#000000;fill-opacity:1;stroke:#ff0e0e;stroke-width:0.351013;stroke-linecap:round;stroke-linejoin:bevel"
     d="M 150.75266,644.40529 C 95.145794,586.86107 61.651276,517.8082 51.861031,440.52863 48.004821,410.08953 48.652711,373.51922 53.6,342.3721 72.987166,220.31445 156.95223,115.92223 272.46118,70.266016 300.2953,59.264269 333.98479,50.637452 349.60352,50.512297 c 11.81921,-0.09471 20.92421,3.108217 30.48241,10.722994 11.0459,8.799984 17.85761,21.975547 18.62915,36.033431 0.50485,9.198488 -0.77548,14.541838 -6.8898,28.754128 -14.48084,33.65967 -22.05636,61.71407 -26.49478,98.11812 -1.55271,12.73524 -1.7771,53.52921 -0.36446,66.25551 3.4616,31.18503 8.97515,55.16043 18.96467,82.46696 5.5016,15.03869 13.77305,33.09806 20.94878,45.73827 1.40653,2.47763 2.45789,4.60422 2.33636,4.72576 -0.12153,0.12153 -3.93765,2.13253 -8.48026,4.46886 -42.2395,21.72452 -75.83065,55.88808 -96.72291,98.37107 -3.62227,7.36564 -7.6205,16.2467 -8.88497,19.73568 -1.26446,3.48899 -2.5937,6.74009 -2.95386,7.22467 -0.36015,0.48458 -1.85319,0.88106 -3.31786,0.88106 -1.46467,0 -6.42143,0.64029 -11.01502,1.42287 -49.24099,8.38887 -90.97078,39.23653 -112.01771,82.80621 -2.43447,5.03964 -4.64219,10.03524 -4.90604,11.10132 -0.26386,1.06608 -0.71462,1.93832 -1.0017,1.93832 -0.28709,0 -3.51037,-3.09251 -7.16286,-6.87224 z"
     id="path3"
     transform="scale(0.02)" />
  <path
     style="fill:#000000;fill-opacity:1;stroke:#ff0e0e;stroke-width:0.351013;stroke-linecap:round;stroke-linejoin:bevel"
     d="m 295.3304,798.56214 c -15.90666,-0.77056 -26.81258,-3.70393 -40.95034,-11.01446 -9.7364,-5.03462 -17.79834,-11.15199 -26.03861,-19.75798 -18.09758,-18.90079 -26.91092,-41.15258 -27.02418,-68.23023 -0.0515,-12.31958 0.82845,-18.05532 4.49069,-29.27075 8.36875,-25.62884 26.63011,-47.04037 50.27511,-58.9478 7.29704,-3.67473 20.27489,-7.73952 29.02706,-9.09156 9.75606,-1.50712 26.63986,-1.05569 35.39313,0.94632 3.18428,0.72829 6.05304,1.1398 6.37501,0.91447 0.32198,-0.22534 0.9674,-3.10574 1.43429,-6.4009 0.46688,-3.29515 1.77371,-9.63877 2.90407,-14.09692 15.68224,-61.85091 62.49131,-109.71396 123.70548,-126.4909 16.19019,-4.43724 25.40031,-5.59138 44.81357,-5.61569 18.89158,-0.0236 26.06123,0.76014 41.44287,4.53057 44.76906,10.97403 83.50586,39.53372 107.66898,79.38171 2.47732,4.0854 5.38553,9.2607 6.46271,11.50066 l 1.95848,4.07265 17.26872,0.38374 c 19.55369,0.43451 25.07446,1.28742 39.45464,6.09537 42.08523,14.07104 74.33632,50.71305 82.93175,94.22278 1.81986,9.21202 1.81076,38.30374 -0.0146,46.80898 -10.69112,49.81421 -48.84028,88.08777 -97.65486,97.97331 -4.04448,0.81906 -12.29118,1.7786 -18.32599,2.13233 -12.70373,0.74461 -370.1578,0.70224 -385.59794,-0.0457 z"
     id="path4"
     transform="scale(0.02)" />
</svg>
