<?xml version="1.0" encoding="UTF-8"?>
<svg version="1.1" xmlns="http://www.w3.org/2000/svg" width="512" height="512">
<path d="M0 0 C44.22 0 88.44 0 134 0 C134 10.89 134 21.78 134 33 C144.89 33 155.78 33 167 33 C167 67.98 167 102.96 167 139 C161.06 139 155.12 139 149 139 C149 144.61 149 150.22 149 156 C144.05 156 139.1 156 134 156 C134 166.89 134 177.78 134 189 C144.89 189 155.78 189 167 189 C167 203.85 167 218.7 167 234 C189.11 234 211.22 234 234 234 C234 244.89 234 255.78 234 267 C244.89 267 255.78 267 267 267 C267 303.96 267 340.92 267 379 C256.11 379 245.22 379 234 379 C234 389.89 234 400.78 234 412 C86.82 412 -60.36 412 -212 412 C-212 401.11 -212 390.22 -212 379 C-222.89 379 -233.78 379 -245 379 C-245 342.04 -245 305.08 -245 267 C-234.11 267 -223.22 267 -212 267 C-212 256.11 -212 245.22 -212 234 C-189.89 234 -167.78 234 -145 234 C-145 219.15 -145 204.3 -145 189 C-134.11 189 -123.22 189 -112 189 C-112 178.11 -112 167.22 -112 156 C-100.78 156 -89.56 156 -78 156 C-78 144.78 -78 133.56 -78 122 C-63.48 122 -48.96 122 -34 122 C-34.01160156 115.65910156 -34.02320313 109.31820312 -34.03515625 102.78515625 C-34.04026295 98.77929586 -34.04507671 94.77343945 -34.04882812 90.76757812 C-34.0548168 84.40274222 -34.06191775 78.03792064 -34.07543945 71.6730957 C-34.08626755 66.54436015 -34.09227667 61.41563994 -34.09487724 56.28689384 C-34.09673163 54.32558386 -34.10035251 52.36427476 -34.10573006 50.40297127 C-34.11293946 47.66584553 -34.11399099 44.92878403 -34.11352539 42.19165039 C-34.11712067 41.37238068 -34.12071594 40.55311096 -34.12442017 39.70901489 C-34.11405216 34.11405216 -34.11405216 34.11405216 -33 33 C-30.55196233 32.9115717 -28.13155206 32.88464028 -25.68359375 32.90234375 C-25.03588013 32.90335083 -24.3881665 32.90435791 -23.7208252 32.90539551 C-21.29303221 32.91064157 -18.86526439 32.92460275 -16.4375 32.9375 C-8.3009375 32.9684375 -8.3009375 32.9684375 0 33 C0 22.11 0 11.22 0 0 Z " fill="#000000" transform="translate(245,100)"/>
<path d="M0 0 C37.62 0 75.24 0 114 0 C114 10.89 114 21.78 114 33 C124.56 33 135.12 33 146 33 C146 44.22 146 55.44 146 67 C156.89 67 167.78 67 179 67 C179 81.52 179 96.04 179 111 C168.11 111 157.22 111 146 111 C146 122.22 146 133.44 146 145 C157.22 145 168.44 145 180 145 C180 134.11 180 123.22 180 112 C202.11 112 224.22 112 247 112 C247 122.56 247 133.12 247 144 C257.89 144 268.78 144 280 144 C280 158.52 280 173.04 280 188 C268.45 188 256.9 188 245 188 C245 199.55 245 211.1 245 223 C120.26 223 -4.48 223 -133 223 C-133 212.44 -133 201.88 -133 191 C-143.89 191 -154.78 191 -166 191 C-166 176.15 -166 161.3 -166 146 C-155.11 146 -144.22 146 -133 146 C-133 134.78 -133 123.56 -133 112 C-110.89 112 -88.78 112 -66 112 C-66 122.89 -66 133.78 -66 145 C-54.78 145 -43.56 145 -32 145 C-32 133.78 -32 122.56 -32 111 C-42.89 111 -53.78 111 -65 111 C-65 96.15 -65 81.3 -65 66 C-54.11 66 -43.22 66 -32 66 C-32 55.11 -32 44.22 -32 33 C-21.44 33 -10.88 33 0 33 C0 22.11 0 11.22 0 0 Z " fill="#FEFEFE" transform="translate(199,256)"/>
<path d="M0 0 C44.22 0 88.44 0 134 0 C134 10.89 134 21.78 134 33 C144.89 33 155.78 33 167 33 C167 67.98 167 102.96 167 139 C161.06 139 155.12 139 149 139 C149 144.61 149 150.22 149 156 C132.83 156 116.66 156 100 156 C100 145.11 100 134.22 100 123 C55.78 123 11.56 123 -34 123 C-34.020625 108.335625 -34.04125 93.67125 -34.0625 78.5625 C-34.071604 73.92517822 -34.08070801 69.28785645 -34.09008789 64.51000977 C-34.09460449 58.8651123 -34.09460449 58.8651123 -34.09544373 56.22593689 C-34.09698344 54.37514506 -34.10050893 52.52435426 -34.10557556 50.67356873 C-34.11285172 47.87684373 -34.11390746 45.08018025 -34.11352539 42.28344727 C-34.11892255 41.03816804 -34.11892255 41.03816804 -34.12442875 39.76773167 C-34.11402634 34.11402634 -34.11402634 34.11402634 -33 33 C-30.55196233 32.9115717 -28.13155206 32.88464028 -25.68359375 32.90234375 C-25.03588013 32.90335083 -24.3881665 32.90435791 -23.7208252 32.90539551 C-21.29303221 32.91064157 -18.86526439 32.92460275 -16.4375 32.9375 C-8.3009375 32.9684375 -8.3009375 32.9684375 0 33 C0 22.11 0 11.22 0 0 Z " fill="#FB0100" transform="translate(245,100)"/>
<path d="M0 0 C22.44 0 44.88 0 68 0 C68 11.55 68 23.1 68 35 C45.56 35 23.12 35 0 35 C0 23.45 0 11.9 0 0 Z " fill="#FF0000" transform="translate(111,155)"/>
<path d="M0 0 C11.22 0 22.44 0 34 0 C34 11.22 34 22.44 34 34 C23.11 34 12.22 34 1 34 C1 45.22 1 56.44 1 68 C-10.55 68 -22.1 68 -34 68 C-34 56.45 -34 44.9 -34 33 C-22.78 33 -11.56 33 0 33 C0 22.11 0 11.22 0 0 Z " fill="#FF0000" transform="translate(445,33)"/>
<path d="M0 0 C11.55 0 23.1 0 35 0 C35 10.89 35 21.78 35 33 C45.89 33 56.78 33 68 33 C68 44.55 68 56.1 68 68 C56.78 68 45.56 68 34 68 C34 56.78 34 45.56 34 34 C22.78 34 11.56 34 0 34 C0 22.78 0 11.56 0 0 Z " fill="#FF0000" transform="translate(144,33)"/>
<path d="M0 0 C22.11 0 44.22 0 67 0 C67 11.55 67 23.1 67 35 C44.89 35 22.78 35 0 35 C0 23.45 0 11.9 0 0 Z " fill="#FF0000" transform="translate(445,155)"/>
<path d="M0 0 C11.22 0 22.44 0 34 0 C34 22.11 34 44.22 34 67 C22.78 67 11.56 67 0 67 C0 44.89 0 22.78 0 0 Z " fill="#FF0000" transform="translate(289,0)"/>
<path d="M0 0 C0.33 0 0.66 0 1 0 C1 14.85 1 29.7 1 45 C11.89 45 22.78 45 34 45 C34 45.33 34 45.66 34 46 C23.11 46 12.22 46 1 46 C1 56.56 1 67.12 1 78 C11.89 78 22.78 78 34 78 C34 78.33 34 78.66 34 79 C22.78 79 11.56 79 0 79 C0 68.11 0 57.22 0 46 C-22.11 46 -44.22 46 -67 46 C-67 45.67 -67 45.34 -67 45 C-44.89 45 -22.78 45 0 45 C0 30.15 0 15.3 0 0 Z " fill="#7E7E7E" transform="translate(133,322)"/>
<path d="M0 0 C0.33 0 0.66 0 1 0 C1 14.52 1 29.04 1 44 C23.11 44 45.22 44 68 44 C68 44.33 68 44.66 68 45 C45.89 45 23.78 45 1 45 C1 55.89 1 66.78 1 78 C-10.22 78 -21.44 78 -33 78 C-33 77.67 -33 77.34 -33 77 C-22.11 77 -11.22 77 0 77 C0 66.44 0 55.88 0 45 C-10.89 45 -21.78 45 -33 45 C-33 44.67 -33 44.34 -33 44 C-22.11 44 -11.22 44 0 44 C0 29.48 0 14.96 0 0 Z " fill="#7E7E7E" transform="translate(378,323)"/>
</svg>
