<?xml version="1.0" encoding="UTF-8"?>
<svg version="1.1" xmlns="http://www.w3.org/2000/svg" width="512" height="512">
<path d="M0 0 C30.03 0 60.06 0 91 0 C91 9.9 91 19.8 91 30 C101.23 30 111.46 30 122 30 C122 39.9 122 49.8 122 60 C131.57 60 141.14 60 151 60 C151 50.1 151 40.2 151 30 C181.03 30 211.06 30 242 30 C242 39.9 242 49.8 242 60 C251.9 60 261.8 60 272 60 C272 69.9 272 79.8 272 90 C281.9 90 291.8 90 302 90 C302 109.8 302 129.6 302 150 C311.9 150 321.8 150 332 150 C332 159.9 332 169.8 332 180 C341.9 180 351.8 180 362 180 C362 210.36 362 240.72 362 272 C352.1 272 342.2 272 332 272 C332 281.9 332 291.8 332 302 C322.1 302 312.2 302 302 302 C302 311.9 302 321.8 302 332 C282.2 332 262.4 332 242 332 C242 361.7 242 391.4 242 422 C232.1 422 222.2 422 212 422 C212 431.9 212 441.8 212 452 C202.1 452 192.2 452 182 452 C182 461.9 182 471.8 182 482 C172.1 482 162.2 482 152 482 C152 491.9 152 501.8 152 512 C121.64 512 91.28 512 60 512 C60 472.4 60 432.8 60 392 C30.3 392 0.6 392 -30 392 C-30 372.2 -30 352.4 -30 332 C-49.8 332 -69.6 332 -90 332 C-90 322.1 -90 312.2 -90 302 C-99.9 302 -109.8 302 -120 302 C-120 292.1 -120 282.2 -120 272 C-129.9 272 -139.8 272 -150 272 C-150 241.64 -150 211.28 -150 180 C-140.1 180 -130.2 180 -120 180 C-120 170.1 -120 160.2 -120 150 C-110.1 150 -100.2 150 -90 150 C-90 130.2 -90 110.4 -90 90 C-80.1 90 -70.2 90 -60 90 C-60 80.1 -60 70.2 -60 60 C-50.1 60 -40.2 60 -30 60 C-30 50.1 -30 40.2 -30 30 C-20.1 30 -10.2 30 0 30 C0 20.1 0 10.2 0 0 Z " fill="#000000" transform="translate(150,0)"/>
<path d="M0 0 C11.22 0 22.44 0 34 0 C34 9.57 34 19.14 34 29 C43.57 29 53.14 29 63 29 C63 39.23 63 49.46 63 60 C72.9 60 82.8 60 93 60 C93 70.23 93 80.46 93 91 C102.9 91 112.8 91 123 91 C123 80.77 123 70.54 123 60 C133.23 60 143.46 60 154 60 C154 49.77 154 39.54 154 29 C163.9 29 173.8 29 184 29 C184 38.9 184 48.8 184 59 C193.57 59 203.14 59 213 59 C213 68.9 213 78.8 213 89 C222.9 89 232.8 89 243 89 C243 109.13 243 129.26 243 150 C253.23 150 263.46 150 274 150 C274 159.9 274 169.8 274 180 C283.9 180 293.8 180 304 180 C304 190.23 304 200.46 304 211 C294.1 211 284.2 211 274 211 C274 220.57 274 230.14 274 240 C263.77 240 253.54 240 243 240 C243 249.9 243 259.8 243 270 C223.2 270 203.4 270 183 270 C183 279.9 183 289.8 183 300 C163.2 300 143.4 300 123 300 C123 260.4 123 220.8 123 180 C93.3 180 63.6 180 33 180 C33 189.9 33 199.8 33 210 C22.77 210 12.54 210 2 210 C2 219.9 2 229.8 2 240 C-7.9 240 -17.8 240 -28 240 C-28 249.9 -28 259.8 -28 270 C-47.47 270 -66.94 270 -87 270 C-87 260.1 -87 250.2 -87 240 C-97.23 240 -107.46 240 -118 240 C-118 230.43 -118 220.86 -118 211 C-127.57 211 -137.14 211 -147 211 C-147 200.77 -147 190.54 -147 180 C-137.1 180 -127.2 180 -117 180 C-117 170.1 -117 160.2 -117 150 C-107.43 150 -97.86 150 -88 150 C-88 130.53 -88 111.06 -88 91 C-78.1 91 -68.2 91 -58 91 C-58.01160156 88.77378906 -58.02320312 86.54757813 -58.03515625 84.25390625 C-58.04294722 82.10603986 -58.04902375 79.95817503 -58.05493164 77.81030273 C-58.05997121 76.31355082 -58.06680287 74.81680384 -58.07543945 73.32006836 C-58.08752159 71.17300193 -58.09323191 69.02600038 -58.09765625 66.87890625 C-58.10289307 65.5854126 -58.10812988 64.29191895 -58.11352539 62.95922852 C-58 60 -58 60 -57 59 C-54.85441173 58.91224395 -52.70595579 58.89304781 -50.55859375 58.90234375 C-49.38353271 58.90484131 -48.20847168 58.90733887 -46.99780273 58.90991211 C-45.49290283 58.91901611 -43.98800293 58.92812012 -42.4375 58.9375 C-37.673125 58.958125 -32.90875 58.97875 -28 59 C-28 49.1 -28 39.2 -28 29 C-18.76 29 -9.52 29 0 29 C0 19.43 0 9.86 0 0 Z " fill="#FEFEFE" transform="translate(178,31)"/>
<path d="M0 0 C9.9 0 19.8 0 30 0 C30 20.13 30 40.26 30 61 C20.1 61 10.2 61 0 61 C0 70.57 0 80.14 0 90 C9.9 90 19.8 90 30 90 C30 99.9 30 109.8 30 120 C60.03 120 90.06 120 121 120 C121 130.23 121 140.46 121 151 C111.1 151 101.2 151 91 151 C91 160.9 91 170.8 91 181 C81.1 181 71.2 181 61 181 C61 190.9 61 200.8 61 211 C50.77 211 40.54 211 30 211 C30 220.9 30 230.8 30 241 C20.1 241 10.2 241 0 241 C0 220.87 0 200.74 0 180 C9.9 180 19.8 180 30 180 C30 170.43 30 160.86 30 151 C20.1 151 10.2 151 0 151 C0 141.1 0 131.2 0 121 C-30.03 121 -60.06 121 -91 121 C-91 110.77 -91 100.54 -91 90 C-81.1 90 -71.2 90 -61 90 C-61 80.1 -61 70.2 -61 60 C-51.1 60 -41.2 60 -31 60 C-31 50.1 -31 40.2 -31 30 C-20.77 30 -10.54 30 0 30 C0 20.1 0 10.2 0 0 Z " fill="#FF0000" transform="translate(241,241)"/>
</svg>
