<?xml version="1.0" encoding="UTF-8" standalone="no"?>
<!-- Uploaded to: SVG Repo, www.svgrepo.com, Generator: SVG Repo Mixer Tools -->

<svg
   width="800px"
   height="800px"
   viewBox="0 0 16 16"
   version="1.1"
   id="svg1"
   sodipodi:docname="overcast.svg"
   inkscape:export-filename="overcast.svg"
   inkscape:export-xdpi="96"
   inkscape:export-ydpi="96"
   inkscape:version="1.4.3 (0d15f75042, 2025-12-25)"
   xmlns:inkscape="http://www.inkscape.org/namespaces/inkscape"
   xmlns:sodipodi="http://sodipodi.sourceforge.net/DTD/sodipodi-0.dtd"
   xmlns="http://www.w3.org/2000/svg"
   xmlns:svg="http://www.w3.org/2000/svg">
  <defs
     id="defs1" />
  <sodipodi:namedview
     id="namedview1"
     pagecolor="#ffffff"
     bordercolor="#000000"
     borderopacity="0.25"
     inkscape:showpageshadow="2"
     inkscape:pageopacity="0.0"
     inkscape:pagecheckerboard="0"
     inkscape:deskcolor="#d1d1d1"
     inkscape:zoom="0.70710678"
     inkscape:cx="-231.93102"
     inkscape:cy="422.14275"
     inkscape:window-width="1266"
     inkscape:window-height="1378"
     inkscape:window-x="0"
     inkscape:window-y="0"
     inkscape:window-maximized="1"
     inkscape:current-layer="svg1" />
  <path
     style="fill:#000000;stroke-width:0.02"
     d="M 7.6848792,6.1601016 5.346887,5.3265566"
     id="path2" />
  <path
     style="fill:#000000;stroke:#ff0e1d;stroke-width:0;stroke-dasharray:none;stroke-dashoffset:0;stroke-opacity:1"
     d="M 3.2403544,10.181442 C 1.2648148,10.028311 -0.20262889,8.2247442 0.05389435,6.265112 0.11031057,5.834137 0.21522957,5.5013672 0.42156287,5.098983 0.88437956,4.196414 1.754472,3.5247034 2.7478324,3.303105 3.2920358,3.1817042 3.8179539,3.297075 4.3579386,3.321558 c 0.036809,0.00167 0.056768,0.00337 0.063565,-0.012333 0.00561,-0.012953 0.056047,-0.1536851 0.1339049,-0.3113043 0.6524734,-1.320886 1.85204,-2.2851496 3.2774502,-2.6345571 0.4610456,-0.113015 0.6337106,-0.1322754 1.185817,-0.1322754 0.3979392,0 0.5568,0.00809 0.7318927,0.037266 0.9158376,0.1526146 1.7010066,0.4985651 2.3887876,1.0525144 0.252632,0.2034738 0.663082,0.6271042 0.852759,0.8801432 0.488729,0.6519906 0.820081,1.4255902 0.945649,2.2077896 0.0366,0.2279768 0.07966,0.8048492 0.0622,0.8331132 -0.0067,0.010832 0.01336,0.025246 0.04457,0.032032 0.719076,0.1563582 1.358581,0.657364 1.692015,1.3255708 0.190245,0.3812546 0.253247,0.659468 0.25206,1.1130928 -8.36e-4,0.3191892 -0.0057,0.3639402 -0.06363,0.5852604 C 15.754222,8.95028 15.349821,9.493631 14.782462,9.832951 l -0.145977,0.0873 -0.186286,-0.124569 C 13.966311,9.47211 13.429297,9.282519 12.83062,9.223898 12.662295,9.207416 12.570859,9.189794 12.559813,9.171707 12.484911,9.0490682 12.169548,8.683456 11.958363,8.4744232 11.282256,7.8052074 10.491248,7.3867576 9.6285867,7.241953 9.29387,7.185768 8.6632668,7.1913062 8.3071128,7.2535588 7.0932826,7.4657252 6.054766,8.1454986 5.363266,9.180489 5.1983628,9.427305 5.0394958,9.724504 4.9203826,10.00901 l -0.076995,0.183904 -0.6976164,0.0023 c -0.3836892,0.0013 -0.7911268,-0.0049 -0.905417,-0.01379 z"
     id="path3"
     sodipodi:nodetypes="cssssscsscsssccsscccsscssssscccc" />
  <path
     style="fill:#ff0909;stroke:#ff0e0e;stroke-width:0;stroke-linecap:round;stroke-linejoin:bevel;stroke-dasharray:none"
     d="M 4.7189682,14.918333 C 4.4531402,14.889924 4.1114088,14.755055 3.8503908,14.582472 3.508126,14.356171 3.2192808,13.963523 3.0761556,13.53 c -0.091562,-0.277341 -0.088319,-0.884114 0.00623,-1.164697 0.04355,-0.129243 0.1724232,-0.385469 0.2628842,-0.522666 0.1826796,-0.277059 0.540481,-0.570526 0.855481,-0.701661 0.3276588,-0.136404 0.7945298,-0.186664 1.1455588,-0.123322 0.080468,0.01452 0.1509976,0.02171 0.1567318,0.01597 0.00573,-0.0057 0.032392,-0.11199 0.059239,-0.236124 0.099071,-0.458071 0.26838,-0.871982 0.5021082,-1.227505 0.787687,-1.198147 2.198155,-1.795324 3.5856146,-1.518112 0.4299798,0.08591 0.9779928,0.324656 1.3383358,0.583057 0.37613,0.269721 0.789808,0.734628 1.024398,1.151253 0.126486,0.224637 0.100608,0.213802 0.510609,0.213802 0.411969,0 0.66471,0.05953 1.036657,0.244177 0.261497,0.129814 0.427744,0.250822 0.65181,0.474438 0.232991,0.232524 0.33183,0.367282 0.466747,0.636368 0.193937,0.386799 0.256345,0.655819 0.256345,1.105017 0,0.458442 -0.06281,0.720729 -0.269649,1.126057 -0.337247,0.660875 -0.766073,1.110951 -1.659482,1.230665 l -1.17297,0.157174 -1.549938,0.11352 C 8.2627141,15.107679 6.0899793,15.06486 6.0289682,15.05834 Z"
     id="path5"
     sodipodi:nodetypes="ssssssscssssssssssssccss" />
</svg>
