<?xml version="1.0" encoding="UTF-8" standalone="no"?>
<!-- Uploaded to: SVG Repo, www.svgrepo.com, Generator: SVG Repo Mixer Tools -->

<svg
   width="800px"
   height="800px"
   viewBox="0 0 16 16"
   version="1.1"
   id="svg1"
   sodipodi:docname="rainy.svg"
   inkscape:version="1.4.3 (0d15f75042, 2025-12-25)"
   inkscape:export-filename="rainy.svg"
   inkscape:export-xdpi="96"
   inkscape:export-ydpi="96"
   xmlns:inkscape="http://www.inkscape.org/namespaces/inkscape"
   xmlns:sodipodi="http://sodipodi.sourceforge.net/DTD/sodipodi-0.dtd"
   xmlns="http://www.w3.org/2000/svg"
   xmlns:svg="http://www.w3.org/2000/svg">
  <defs
     id="defs1" />
  <sodipodi:namedview
     id="namedview1"
     pagecolor="#ffffff"
     bordercolor="#000000"
     borderopacity="0.25"
     inkscape:showpageshadow="2"
     inkscape:pageopacity="0.0"
     inkscape:pagecheckerboard="0"
     inkscape:deskcolor="#d1d1d1"
     inkscape:zoom="1.41875"
     inkscape:cx="400.35242"
     inkscape:cy="400"
     inkscape:window-width="1266"
     inkscape:window-height="1378"
     inkscape:window-x="0"
     inkscape:window-y="0"
     inkscape:window-maximized="1"
     inkscape:current-layer="svg1" />
  <path
     d="m 9 0 c -2.027344 0.00390625 -3.855469 1.234375 -4.621094 3.113281 c -0.285156 -0.074219 -0.582031 -0.113281 -0.878906 -0.113281 c -1.933594 0 -3.5 1.566406 -3.5 3.5 s 1.566406 3.5 3.5 3.5 h 10 c 1.378906 0 2.5 -1.121094 2.5 -2.5 c 0 -1.1875 -0.839844 -2.214844 -2.003906 -2.449219 c 0 -0.015625 0.003906 -0.035156 0.003906 -0.050781 c 0 -2.761719 -2.238281 -5 -5 -5 z m -4.429688 11 c -0.484374 -0.03125 -0.921874 0.285156 -1.042968 0.757812 l -0.5 2 c -0.132813 0.535157 0.195312 1.078126 0.730468 1.210938 c 0.535157 0.136719 1.078126 -0.191406 1.210938 -0.726562 l 0.5 -2 c 0.136719 -0.535157 -0.191406 -1.078126 -0.726562 -1.210938 c -0.054688 -0.015625 -0.113282 -0.023438 -0.171876 -0.03125 z m 3.5 0 c -0.484374 -0.03125 -0.921874 0.285156 -1.042968 0.757812 l -0.5 2 c -0.132813 0.535157 0.195312 1.078126 0.730468 1.210938 c 0.535157 0.136719 1.078126 -0.191406 1.210938 -0.726562 l 0.5 -2 c 0.136719 -0.535157 -0.191406 -1.078126 -0.726562 -1.210938 c -0.054688 -0.015625 -0.113282 -0.023438 -0.171876 -0.03125 z m 3.5 0 c -0.484374 -0.03125 -0.921874 0.285156 -1.042968 0.757812 l -0.5 2 c -0.132813 0.535157 0.195312 1.078126 0.730468 1.210938 c 0.535157 0.136719 1.078126 -0.191406 1.210938 -0.726562 l 0.5 -2 c 0.136719 -0.535157 -0.191406 -1.078126 -0.726562 -1.210938 c -0.054688 -0.015625 -0.113282 -0.023438 -0.171876 -0.03125 z m 0 0"
     fill="#2e3436"
     id="path1" />
  <path
     style="fill:#000000;stroke:#ff0e0e;stroke-width:0.351013;stroke-linecap:round;stroke-linejoin:bevel"
     d="M 159.29515,498.94976 C 106.2369,494.25831 58.424214,465.23532 28.216736,419.38326 21.687801,409.47296 13.249297,391.76761 9.236418,379.55947 3.0741231,360.81229 0.65637737,345.39282 0.65279493,324.81634 0.6479033,296.72062 5.9823753,273.6461 18.305621,248.45815 c 8.591419,-17.56032 17.623114,-30.41688 31.327864,-44.59501 41.07141,-42.49005 99.719285,-61.33623 156.886335,-50.41459 13.99969,2.67461 12.13558,3.50028 17.22276,-7.62845 11.70016,-25.59528 27.76393,-48.921316 47.8382,-69.465351 41.73299,-42.709609 93.17181,-67.7783634 153.06765,-74.5976595 12.763,-1.45310092 37.54872,-1.46882187 51.08166,-0.0324 71.17608,7.5548121 134.12516,44.0119825 176.60471,102.2812205 29.25809,40.13333 46.21828,90.44032 47.06532,139.60423 l 0.15935,9.2489 5.28634,1.23706 c 12.54471,2.93558 26.88219,9.28532 38.92519,17.23908 27.43429,18.11892 46.28877,46.18734 53.52225,79.67804 1.40271,6.4944 1.60028,9.42966 1.61325,23.96475 0.013,14.66935 -0.1698,17.41037 -1.59852,23.96476 -11.99316,55.02078 -54.95922,94.01672 -110.23174,100.0463 -8.33603,0.90937 -517.48089,0.87147 -527.78109,-0.0393 z"
     id="path2"
     transform="scale(0.02)" />
  <path
     style="fill:#000000;stroke:#ff0e0e;stroke-width:0.351013;stroke-linecap:round;stroke-linejoin:bevel"
     d="m 194.04372,749.20858 c -15.90958,-2.07225 -31.1114,-12.78252 -38.17464,-26.89552 -4.15091,-8.2939 -5.35597,-13.46427 -5.30317,-22.75359 0.0436,-7.66757 0.19366,-8.34831 13.57231,-61.56323 13.51604,-53.76144 15.04168,-58.85284 19.65101,-65.57965 11.59059,-16.91521 33.19109,-25.41581 52.37305,-20.61074 15.33254,3.84079 27.18357,13.54798 33.7596,27.6525 3.2622,6.99689 4.50393,12.76387 4.46094,20.71786 -0.0365,6.75455 -0.61026,9.33007 -13.75928,61.76507 -14.91976,59.49625 -15.32588,60.75806 -22.34896,69.43777 -10.29626,12.72498 -28.1542,19.92354 -44.23086,17.82953 z"
     id="path3"
     transform="scale(0.02)" />
  <path
     style="fill:#000000;stroke:#ff0e0e;stroke-width:0.351013;stroke-linecap:round;stroke-linejoin:bevel"
     d="m 369.47515,749.20699 c -16.90632,-2.22138 -31.33003,-12.28065 -38.47845,-26.83533 -4.26868,-8.69132 -5.56848,-14.05767 -5.52539,-22.81219 0.0332,-6.75052 0.60477,-9.32769 13.52156,-60.96916 15.8631,-63.42091 15.70143,-62.96638 26.08166,-73.32983 15.86833,-15.8427 37.18465,-19.16935 57.82422,-9.02412 4.71712,2.31866 7.17694,4.14579 11.62995,8.63859 6.4756,6.53345 10.17775,12.45144 12.82397,20.4995 1.57864,4.80117 1.8569,6.89516 1.8733,14.09692 l 0.0192,8.45815 -13.53033,53.9207 c -15.81373,63.02046 -15.72967,62.78232 -25.72892,72.89021 -4.76566,4.81744 -6.90983,6.38551 -12.45293,9.10705 -9.95942,4.88984 -18.79194,6.57699 -28.05789,5.35951 z"
     id="path4"
     transform="scale(0.02)" />
  <path
     style="fill:#000000;stroke:#ff0e0e;stroke-width:0.351013;stroke-linecap:round;stroke-linejoin:bevel"
     d="m 544.41449,749.22205 c -16.93906,-2.23754 -31.19917,-12.22171 -38.67299,-27.07678 -3.88041,-7.71278 -5.5189,-15.35306 -5.13015,-23.92199 0.28672,-6.3201 1.84614,-13.19288 13.85048,-61.04266 14.61391,-58.25169 15.09509,-59.75415 21.8034,-68.08107 6.85357,-8.50722 17.99949,-15.43067 28.41098,-17.64789 6.59335,-1.40411 18.16404,-0.92562 24.28112,1.0041 15.43339,4.8687 27.9821,17.0699 33.13133,32.21384 1.48685,4.37288 1.98549,7.37937 2.22112,13.39207 l 0.30384,7.75331 -13.83298,55.33039 c -15.62395,62.49409 -15.72946,62.80803 -24.17705,71.93221 -11.2946,12.1992 -26.88669,18.16582 -42.1891,16.14447 z"
     id="path5"
     transform="scale(0.02)" />
  <path
     style="fill:#000000;stroke:#ff0e0e;stroke-width:0.351013;stroke-linecap:round;stroke-linejoin:bevel"
     d="M 163.87665,498.28954 C 140.96155,497.37583 121.00758,492.14881 98.761917,481.23249 73.322185,468.74877 51.514804,450.34004 33.880562,426.46277 17.16351,403.82741 4.952907,372.03925 2.075708,343.66442 0.88667559,331.93822 1.6151657,305.9465 3.420525,295.68282 c 9.514963,-54.09365 44.050132,-100.7299 93.143352,-125.78067 25.312013,-12.91594 49.292513,-18.66492 77.885463,-18.67193 14.19516,-0.003 20.39853,0.57783 34.41555,3.22503 4.19728,0.79267 8.40473,1.24714 9.34989,1.00992 1.40264,-0.35204 2.79923,-2.66298 7.59884,-12.57379 12.58754,-25.99231 27.55835,-47.20092 47.66656,-67.527503 38.48363,-38.90157 84.55504,-62.447989 140.13141,-71.6191051 11.23222,-1.8535232 12.87573,-1.9419172 36.43246,-1.9594777 26.46202,-0.019726 31.40431,0.4048877 50.04406,4.2995014 65.20048,13.6230764 121.15945,51.6743714 157.93772,107.3953844 25.30183,38.33361 38.77965,80.90563 40.86713,129.08599 l 0.47765,11.02431 2.91382,0.46096 c 8.66916,1.37144 26.72385,8.91109 38.32167,16.00314 28.08521,17.17403 48.99799,47.50935 56.29779,81.66348 1.8584,8.69521 1.88955,37.8842 0.0495,46.46014 -10.65346,49.65364 -47.31009,87.03731 -96.17437,98.08189 -3.64781,0.8245 -11.17624,1.6633 -18.48832,2.05994 -14.34263,0.77799 -498.85274,0.7495 -518.4141,-0.0305 z"
     id="path6"
     transform="scale(0.02)" />
</svg>
