<?xml version="1.0" encoding="UTF-8"?>
<svg version="1.1" xmlns="http://www.w3.org/2000/svg" width="512" height="512">
<path d="M0 0 C10.23 0 20.46 0 31 0 C31 19.8 31 39.6 31 60 C40.9 60 50.8 60 61 60 C61 69.9 61 79.8 61 90 C70.9 90 80.8 90 91 90 C91 99.9 91 109.8 91 120 C100.9 120 110.8 120 121 120 C121 129.9 121 139.8 121 150 C150.7 150 180.4 150 211 150 C211 140.1 211 130.2 211 120 C220.9 120 230.8 120 241 120 C241 110.1 241 100.2 241 90 C250.9 90 260.8 90 271 90 C271 80.1 271 70.2 271 60 C280.9 60 290.8 60 301 60 C301 40.2 301 20.4 301 0 C311.23 0 321.46 0 332 0 C332 9.9 332 19.8 332 30 C341.9 30 351.8 30 362 30 C362 40.23 362 50.46 362 61 C342.2 61 322.4 61 302 61 C302 70.9 302 80.8 302 91 C292.1 91 282.2 91 272 91 C272 100.9 272 110.8 272 121 C262.1 121 252.2 121 242 121 C242 130.9 242 140.8 242 151 C232.1 151 222.2 151 212 151 C212 180.7 212 210.4 212 241 C221.9 241 231.8 241 242 241 C242 250.9 242 260.8 242 271 C251.9 271 261.8 271 272 271 C272 280.9 272 290.8 272 301 C281.9 301 291.8 301 302 301 C302 310.9 302 320.8 302 331 C321.8 331 341.6 331 362 331 C362 341.23 362 351.46 362 362 C352.1 362 342.2 362 332 362 C332 371.9 332 381.8 332 392 C321.77 392 311.54 392 301 392 C301 372.2 301 352.4 301 332 C291.1 332 281.2 332 271 332 C271 322.1 271 312.2 271 302 C261.1 302 251.2 302 241 302 C241 292.1 241 282.2 241 272 C231.1 272 221.2 272 211 272 C211 262.1 211 252.2 211 242 C181.3 242 151.6 242 121 242 C121 251.9 121 261.8 121 272 C111.1 272 101.2 272 91 272 C91 281.9 91 291.8 91 302 C81.1 302 71.2 302 61 302 C61 311.9 61 321.8 61 332 C51.1 332 41.2 332 31 332 C31 351.8 31 371.6 31 392 C20.77 392 10.54 392 0 392 C0 382.1 0 372.2 0 362 C-9.9 362 -19.8 362 -30 362 C-30 351.77 -30 341.54 -30 331 C-10.2 331 9.6 331 30 331 C30 321.1 30 311.2 30 301 C39.9 301 49.8 301 60 301 C60 291.1 60 281.2 60 271 C69.9 271 79.8 271 90 271 C90 261.1 90 251.2 90 241 C99.9 241 109.8 241 120 241 C120 211.3 120 181.6 120 151 C110.1 151 100.2 151 90 151 C90 141.1 90 131.2 90 121 C80.1 121 70.2 121 60 121 C60 111.1 60 101.2 60 91 C50.1 91 40.2 91 30 91 C30 81.1 30 71.2 30 61 C10.2 61 -9.6 61 -30 61 C-30 50.77 -30 40.54 -30 30 C-20.1 30 -10.2 30 0 30 C0 20.1 0 10.2 0 0 Z " fill="#000000" transform="translate(90,60)"/>
<path d="M0 0 C10.56 0 21.12 0 32 0 C32 19.8 32 39.6 32 60 C41.9 60 51.8 60 62 60 C62 69.9 62 79.8 62 90 C71.9 90 81.8 90 92 90 C92 100.23 92 110.46 92 121 C81.77 121 71.54 121 61 121 C61 111.1 61 101.2 61 91 C51.43 91 41.86 91 32 91 C32 110.47 32 129.94 32 150 C41.9 150 51.8 150 62 150 C62 160.23 62 170.46 62 181 C51.77 181 41.54 181 31 181 C31 171.1 31 161.2 31 151 C21.1 151 11.2 151 1 151 C1 160.9 1 170.8 1 181 C-9.23 181 -19.46 181 -30 181 C-30 170.77 -30 160.54 -30 150 C-20.1 150 -10.2 150 0 150 C0 130.53 0 111.06 0 91 C-9.57 91 -19.14 91 -29 91 C-29 100.9 -29 110.8 -29 121 C-39.23 121 -49.46 121 -60 121 C-60 110.77 -60 100.54 -60 90 C-50.1 90 -40.2 90 -30 90 C-30 80.1 -30 70.2 -30 60 C-20.1 60 -10.2 60 0 60 C0 40.2 0 20.4 0 0 Z " fill="#000000" transform="translate(240,331)"/>
<path d="M0 0 C10.23 0 20.46 0 31 0 C31 10.23 31 20.46 31 31 C21.1 31 11.2 31 1 31 C1 40.57 1 50.14 1 60 C20.47 60 39.94 60 60 60 C60 50.1 60 40.2 60 30 C70.23 30 80.46 30 91 30 C91 40.23 91 50.46 91 61 C81.1 61 71.2 61 61 61 C61 70.9 61 80.8 61 91 C70.9 91 80.8 91 91 91 C91 101.23 91 111.46 91 122 C80.77 122 70.54 122 60 122 C60 112.1 60 102.2 60 92 C40.53 92 21.06 92 1 92 C1 101.57 1 111.14 1 121 C10.9 121 20.8 121 31 121 C31 131.23 31 141.46 31 152 C20.77 152 10.54 152 0 152 C0 142.1 0 132.2 0 122 C-9.9 122 -19.8 122 -30 122 C-30 112.1 -30 102.2 -30 92 C-49.8 92 -69.6 92 -90 92 C-90 81.44 -90 70.88 -90 60 C-70.2 60 -50.4 60 -30 60 C-30 50.1 -30 40.2 -30 30 C-20.1 30 -10.2 30 0 30 C0 20.1 0 10.2 0 0 Z " fill="#000000" transform="translate(421,180)"/>
<path d="M0 0 C10.23 0 20.46 0 31 0 C31 9.9 31 19.8 31 30 C40.9 30 50.8 30 61 30 C61 39.9 61 49.8 61 60 C80.8 60 100.6 60 121 60 C121 70.56 121 81.12 121 92 C101.2 92 81.4 92 61 92 C61 101.9 61 111.8 61 122 C51.1 122 41.2 122 31 122 C31 131.9 31 141.8 31 152 C20.77 152 10.54 152 0 152 C0 141.77 0 131.54 0 121 C9.9 121 19.8 121 30 121 C30 111.43 30 101.86 30 92 C10.53 92 -8.94 92 -29 92 C-29 101.9 -29 111.8 -29 122 C-39.23 122 -49.46 122 -60 122 C-60 111.77 -60 101.54 -60 91 C-50.1 91 -40.2 91 -30 91 C-30 81.1 -30 71.2 -30 61 C-39.9 61 -49.8 61 -60 61 C-60 50.77 -60 40.54 -60 30 C-49.77 30 -39.54 30 -29 30 C-29 39.9 -29 49.8 -29 60 C-9.53 60 9.94 60 30 60 C30 50.43 30 40.86 30 31 C20.1 31 10.2 31 0 31 C0 20.77 0 10.54 0 0 Z " fill="#000000" transform="translate(60,180)"/>
<path d="M0 0 C10.23 0 20.46 0 31 0 C31 9.9 31 19.8 31 30 C40.9 30 50.8 30 61 30 C61 20.1 61 10.2 61 0 C71.23 0 81.46 0 92 0 C92 10.23 92 20.46 92 31 C82.1 31 72.2 31 62 31 C62 50.47 62 69.94 62 90 C71.57 90 81.14 90 91 90 C91 80.1 91 70.2 91 60 C101.23 60 111.46 60 122 60 C122 70.23 122 80.46 122 91 C112.1 91 102.2 91 92 91 C92 100.9 92 110.8 92 121 C82.1 121 72.2 121 62 121 C62 140.8 62 160.6 62 181 C51.44 181 40.88 181 30 181 C30 161.2 30 141.4 30 121 C20.1 121 10.2 121 0 121 C0 111.1 0 101.2 0 91 C-9.9 91 -19.8 91 -30 91 C-30 80.77 -30 70.54 -30 60 C-19.77 60 -9.54 60 1 60 C1 69.9 1 79.8 1 90 C10.57 90 20.14 90 30 90 C30 70.53 30 51.06 30 31 C20.1 31 10.2 31 0 31 C0 20.77 0 10.54 0 0 Z " fill="#000000" transform="translate(210,0)"/>
</svg>
