<?xml version="1.0" encoding="UTF-8" standalone="no"?>
<!-- Uploaded to: SVG Repo, www.svgrepo.com, Generator: SVG Repo Mixer Tools -->

<svg
   width="800px"
   height="800px"
   viewBox="0 0 16 16"
   version="1.1"
   id="svg1"
   sodipodi:docname="stormy.svg"
   inkscape:version="1.4.3 (0d15f75042, 2025-12-25)"
   inkscape:export-filename="stormy.png"
   inkscape:export-xdpi="96"
   inkscape:export-ydpi="96"
   xmlns:inkscape="http://www.inkscape.org/namespaces/inkscape"
   xmlns:sodipodi="http://sodipodi.sourceforge.net/DTD/sodipodi-0.dtd"
   xmlns="http://www.w3.org/2000/svg"
   xmlns:svg="http://www.w3.org/2000/svg">
  <defs
     id="defs1" />
  <sodipodi:namedview
     id="namedview1"
     pagecolor="#ffffff"
     bordercolor="#000000"
     borderopacity="0.25"
     inkscape:showpageshadow="2"
     inkscape:pageopacity="0.0"
     inkscape:pagecheckerboard="0"
     inkscape:deskcolor="#d1d1d1"
     inkscape:zoom="11.35"
     inkscape:cx="704.49339"
     inkscape:cy="287.09251"
     inkscape:window-width="2546"
     inkscape:window-height="1378"
     inkscape:window-x="0"
     inkscape:window-y="0"
     inkscape:window-maximized="1"
     inkscape:current-layer="svg1" />
  <path
     d="m 9 0 c -2.027344 0.00390625 -3.855469 1.234375 -4.617188 3.113281 c -0.289062 -0.074219 -0.585937 -0.113281 -0.882812 -0.113281 c -1.933594 0 -3.5 1.566406 -3.5 3.5 s 1.566406 3.5 3.5 3.5 h 1.058594 l 0.96875 -4.222656 c 0.101562 -0.453125 0.507812 -0.777344 0.972656 -0.777344 h 3.75 c 0.3125 0 0.609375 0.148438 0.796875 0.394531 c 0.191406 0.25 0.25 0.574219 0.167969 0.875 l -0.769532 2.730469 h 1.554688 c 0.550781 0.003906 0.996094 0.449219 0.996094 1 h 0.503906 c 1.378906 0 2.5 -1.121094 2.5 -2.5 c 0 -1.1875 -0.839844 -2.214844 -2.003906 -2.449219 c 0 -0.015625 0.003906 -0.035156 0.003906 -0.050781 c 0 -2.761719 -2.238281 -5 -5 -5 z m -2.5 6 l -1.375 6 h 2.875 l -1 4 l 5 -6 h -2.875 l 1.125 -4 z m 0 0"
     fill="#2e3436"
     id="path1"
     style="fill:#000000;fill-opacity:1" />
  <path
     style="fill:#f20012;stroke:#ff0e0e;stroke-width:0.351013;stroke-linecap:round;stroke-linejoin:bevel;fill-opacity:1"
     d="m 351.25936,796.82819 c 0.70727,-2.46431 49.09306,-196.27605 49.09306,-196.64473 0,-0.19416 -32.3047,-0.43381 -71.78823,-0.53256 l -71.78823,-0.17953 34.25519,-149.59816 34.25519,-149.59816 93.29227,-0.005 93.29228,-0.005 -0.47465,1.93832 c -0.26106,1.06608 -12.64602,45.23348 -27.52213,98.14978 -14.87612,52.9163 -27.25993,97.0837 -27.51959,98.14978 l -0.4721,1.93833 h 71.62047 71.62047 l -123.44708,148.1931 c -67.8959,81.50661 -123.75632,148.51101 -124.1343,148.89868 -0.44981,0.46136 -0.54744,0.21786 -0.28262,-0.70485 z"
     id="path3"
     transform="scale(0.02)" />
</svg>
