<?xml version="1.0" encoding="UTF-8" standalone="no"?>
<!-- Uploaded to: SVG Repo, www.svgrepo.com, Generator: SVG Repo Mixer Tools -->

<svg
   width="800px"
   height="800px"
   viewBox="0 0 16 16"
   version="1.1"
   id="svg1"
   sodipodi:docname="stormy.svg"
   inkscape:version="1.4.3 (0d15f75042, 2025-12-25)"
   inkscape:export-filename="stormy.svg"
   inkscape:export-xdpi="96"
   inkscape:export-ydpi="96"
   xmlns:inkscape="http://www.inkscape.org/namespaces/inkscape"
   xmlns:sodipodi="http://sodipodi.sourceforge.net/DTD/sodipodi-0.dtd"
   xmlns="http://www.w3.org/2000/svg"
   xmlns:svg="http://www.w3.org/2000/svg">
  <defs
     id="defs1" />
  <sodipodi:namedview
     id="namedview1"
     pagecolor="#ffffff"
     bordercolor="#000000"
     borderopacity="0.25"
     inkscape:showpageshadow="2"
     inkscape:pageopacity="0.0"
     inkscape:pagecheckerboard="0"
     inkscape:deskcolor="#d1d1d1"
     inkscape:zoom="1.41875"
     inkscape:cx="400.35242"
     inkscape:cy="400"
     inkscape:window-width="1266"
     inkscape:window-height="1378"
     inkscape:window-x="0"
     inkscape:window-y="0"
     inkscape:window-maximized="1"
     inkscape:current-layer="svg1" />
  <path
     d="m 9 0 c -2.027344 0.00390625 -3.855469 1.234375 -4.617188 3.113281 c -0.289062 -0.074219 -0.585937 -0.113281 -0.882812 -0.113281 c -1.933594 0 -3.5 1.566406 -3.5 3.5 s 1.566406 3.5 3.5 3.5 h 1.058594 l 0.96875 -4.222656 c 0.101562 -0.453125 0.507812 -0.777344 0.972656 -0.777344 h 3.75 c 0.3125 0 0.609375 0.148438 0.796875 0.394531 c 0.191406 0.25 0.25 0.574219 0.167969 0.875 l -0.769532 2.730469 h 1.554688 c 0.550781 0.003906 0.996094 0.449219 0.996094 1 h 0.503906 c 1.378906 0 2.5 -1.121094 2.5 -2.5 c 0 -1.1875 -0.839844 -2.214844 -2.003906 -2.449219 c 0 -0.015625 0.003906 -0.035156 0.003906 -0.050781 c 0 -2.761719 -2.238281 -5 -5 -5 z m -2.5 6 l -1.375 6 h 2.875 l -1 4 l 5 -6 h -2.875 l 1.125 -4 z m 0 0"
     fill="#2e3436"
     id="path1" />
  <path
     style="fill:#000000;stroke:#ff0e0e;stroke-width:0.351013;stroke-linecap:round;stroke-linejoin:bevel"
     d="M 159.29515,498.94976 C 106.2369,494.25831 58.424214,465.23532 28.216736,419.38326 21.687801,409.47296 13.249297,391.76761 9.236418,379.55947 3.0741231,360.81229 0.65637737,345.39282 0.65279493,324.81634 0.6479033,296.72062 5.9823753,273.6461 18.305621,248.45815 c 8.591419,-17.56032 17.623114,-30.41688 31.327864,-44.59501 41.070684,-42.4893 99.640255,-61.31316 156.886335,-50.4222 5.23348,0.99566 10.31859,1.95308 11.30023,2.1276 1.60823,0.28593 1.94838,-0.0893 3.43824,-3.79301 6.48076,-16.11075 22.286,-42.46177 35.01816,-58.38346 7.2349,-9.047302 26.10067,-28.1839 35.07861,-35.58217 38.15527,-31.441867 83.0871,-50.3366982 133.29337,-56.0528105 12.763,-1.45310092 37.54872,-1.46882187 51.08166,-0.0324 71.17608,7.5548121 134.12516,44.0119825 176.60471,102.2812205 29.25809,40.13333 46.21828,90.44032 47.06532,139.60423 l 0.15935,9.2489 5.28634,1.23706 c 12.54471,2.93558 26.88219,9.28532 38.92519,17.23908 27.43429,18.11892 46.28877,46.18734 53.52225,79.67804 1.40271,6.4944 1.60028,9.42966 1.61325,23.96475 0.013,14.66935 -0.1698,17.41037 -1.59852,23.96476 -11.99316,55.02078 -54.95922,94.01672 -110.23174,100.0463 -3.76446,0.41066 -13.67635,0.74665 -22.02644,0.74665 h -15.18196 v -3.41148 c 0,-1.87631 -0.61697,-5.82381 -1.37104,-8.77221 -4.37491,-17.10573 -16.6783,-29.9911 -34.22367,-35.84251 -4.92325,-1.64192 -5.02742,-1.64595 -48.17447,-1.86223 l -43.24055,-0.21675 0.39504,-1.55534 c 0.21727,-0.85543 8.96605,-31.96 19.44174,-69.12126 11.82894,-41.9618 19.31824,-69.75109 19.76325,-73.3323 1.92585,-15.49792 -4.05173,-31.63699 -15.72239,-42.44943 -7.94948,-7.3649 -16.91488,-11.56241 -27.74948,-12.99203 -3.62198,-0.47792 -39.27242,-0.65566 -104.18451,-0.51942 l -98.67841,0.20712 -4.93392,1.66681 c -17.384,5.87279 -29.46677,17.76647 -34.10925,33.57548 -0.79689,2.71366 -11.94261,50.76652 -24.76826,106.78414 -12.82565,56.01762 -23.65568,103.19824 -24.06672,104.84582 l -0.74735,2.99559 -30.75333,-0.0969 c -16.91433,-0.0533 -33.76655,-0.36336 -37.44937,-0.68899 z"
     id="path2"
     transform="scale(0.02)" />
  <path
     style="fill:#f20012;stroke:#ff0e0e;stroke-width:0.351013;stroke-linecap:round;stroke-linejoin:bevel;fill-opacity:1"
     d="m 351.25936,796.82819 c 0.70727,-2.46431 49.09306,-196.27605 49.09306,-196.64473 0,-0.19416 -32.3047,-0.43381 -71.78823,-0.53256 l -71.78823,-0.17953 34.25519,-149.59816 34.25519,-149.59816 93.29227,-0.005 93.29228,-0.005 -0.47465,1.93832 c -0.26106,1.06608 -12.64602,45.23348 -27.52213,98.14978 -14.87612,52.9163 -27.25993,97.0837 -27.51959,98.14978 l -0.4721,1.93833 h 71.62047 71.62047 l -123.44708,148.1931 c -67.8959,81.50661 -123.75632,148.51101 -124.1343,148.89868 -0.44981,0.46136 -0.54744,0.21786 -0.28262,-0.70485 z"
     id="path3"
     transform="scale(0.02)" />
</svg>
