<?xml version="1.0" encoding="UTF-8"?>
<svg version="1.1" xmlns="http://www.w3.org/2000/svg" width="512" height="512">
<path d="M0 0 C23.90035059 22.02607768 38.71731106 52.17595219 40.51708984 84.83007812 C41.13305465 103.19596556 38.5874163 120.2580507 32.39111328 137.54443359 C32.03404297 138.56666016 31.67697266 139.58888672 31.30908203 140.64208984 C22.28614825 164.33127642 3.73386126 185.24851444 -17.60888672 198.54443359 C-18.54861328 199.15673828 -19.48833984 199.76904297 -20.45654297 200.39990234 C-47.09141777 216.99632365 -81.34816619 221.72241596 -111.84472656 215.05566406 C-121.96872907 212.65804315 -131.37309886 209.39322222 -140.60888672 204.54443359 C-141.24568359 204.21427246 -141.88248047 203.88411133 -142.53857422 203.54394531 C-162.3014136 193.21293996 -178.78753523 178.52019019 -190.60888672 159.54443359 C-191.22119141 158.60470703 -191.83349609 157.66498047 -192.46435547 156.69677734 C-209.5480471 129.27990359 -213.6817922 94.75879977 -206.60888672 63.54443359 C-205.23607501 58.10295271 -203.5049936 52.82401264 -201.60888672 47.54443359 C-201.24021484 46.51060547 -200.87154297 45.47677734 -200.49169922 44.41162109 C-188.82776271 14.24626805 -163.79715019 -9.58546625 -134.5703125 -22.62402344 C-89.10851084 -41.89747333 -36.4928227 -33.01520622 0 0 Z " fill="#FF0000" transform="translate(340.60888671875,163.45556640625)"/>
<path d="M0 0 C3.02874459 1.35631828 5.1251941 2.87646766 7.46411133 5.22119141 C8.45082573 6.20329086 8.45082573 6.20329086 9.45747375 7.20523071 C10.15857773 7.9135202 10.8596817 8.62180969 11.58203125 9.3515625 C12.31443527 10.08442474 13.04683929 10.81728699 13.80143738 11.57235718 C15.35119847 13.12513829 16.89852945 14.68034803 18.44360352 16.23779297 C20.78812668 18.60043828 23.14041748 20.95511735 25.49414062 23.30859375 C27.00307417 24.82244833 28.51155215 26.33675717 30.01953125 27.8515625 C30.71456253 28.5477066 31.40959381 29.24385071 32.12568665 29.96109009 C36.04341911 33.91628071 39.79344912 37.96481738 43.41362 42.19467163 C45.81699201 44.92975129 48.39449611 47.45804498 51 50 C49.45872649 53.71268094 47.19156766 55.98115698 44.3125 58.75 C41.32082486 61.63466343 38.48141966 64.56532306 35.77783203 67.71777344 C32.25703363 71.75877767 28.55832765 75.57099478 24.75390625 79.34375 C24.09792953 79.99831177 23.44195282 80.65287354 22.76609802 81.32727051 C20.70059855 83.38723823 18.63162405 85.44367366 16.5625 87.5 C15.14885566 88.9086205 13.73544214 90.31747267 12.32226562 91.7265625 C8.88416851 95.15372133 5.44295344 98.57772019 2 102 C-1.66752005 100.4608199 -3.98580573 98.24514548 -6.765625 95.4296875 C-7.65507812 94.53378906 -8.54453125 93.63789063 -9.4609375 92.71484375 C-10.38132812 91.77769531 -11.30171875 90.84054687 -12.25 89.875 C-13.19484856 88.92011363 -14.14015633 87.96568141 -15.0859375 87.01171875 C-17.39518338 84.67890913 -19.69963203 82.34155914 -22 80 C-16.75541414 73.63409696 -10.97902678 67.86429388 -5.125 62.0625 C-4.14039081 61.08291763 -3.156014 60.10310163 -2.171875 59.12304688 C0.21648203 56.74639748 2.60715212 54.37212644 5 52 C3.37843976 47.89891114 0.4232297 45.16851833 -2.6640625 42.140625 C-3.49216934 41.316763 -3.49216934 41.316763 -4.33700562 40.47625732 C-6.09501815 38.72940707 -7.8598689 36.98965399 -9.625 35.25 C-10.8207708 34.06426409 -12.01608865 32.8780712 -13.2109375 31.69140625 C-16.13540253 28.78894915 -19.06601874 25.8928359 -22 23 C-17.47008204 17.56266945 -12.65705784 12.53541069 -7.625 7.5625 C-6.88894531 6.83095703 -6.15289062 6.09941406 -5.39453125 5.34570312 C-3.59863926 3.56147277 -1.80044015 1.77963876 0 0 Z " fill="#FF0000" transform="translate(429,205)"/>
<path d="M0 0 C3.71268094 1.54127351 5.98115698 3.80843234 8.75 6.6875 C11.63466343 9.67917514 14.56532306 12.51858034 17.71777344 15.22216797 C21.75877767 18.74296637 25.57099478 22.44167235 29.34375 26.24609375 C29.99831177 26.90207047 30.65287354 27.55804718 31.32727051 28.23390198 C33.38723823 30.29940145 35.44367366 32.36837595 37.5 34.4375 C38.9086205 35.85114434 40.31747267 37.26455786 41.7265625 38.67773438 C45.15372133 42.11583149 48.57772019 45.55704656 52 49 C50.4608199 52.66752005 48.24514548 54.98580573 45.4296875 57.765625 C44.53378906 58.65507813 43.63789063 59.54453125 42.71484375 60.4609375 C41.77769531 61.38132813 40.84054687 62.30171875 39.875 63.25 C38.92011363 64.19484856 37.96568141 65.14015633 37.01171875 66.0859375 C34.67890913 68.39518338 32.34155914 70.69963203 30 73 C23.63409696 67.75541414 17.86429388 61.97902678 12.0625 56.125 C11.08291763 55.14039081 10.10310163 54.156014 9.12304688 53.171875 C6.74639748 50.78351797 4.37212644 48.39284788 2 46 C-2.10108886 47.62156024 -4.83148167 50.5767703 -7.859375 53.6640625 C-8.683237 54.49216934 -8.683237 54.49216934 -9.52374268 55.33700562 C-11.27059293 57.09501815 -13.01034601 58.8598689 -14.75 60.625 C-15.93573591 61.8207708 -17.1219288 63.01608865 -18.30859375 64.2109375 C-21.21105085 67.13540253 -24.1071641 70.06601874 -27 73 C-32.43733055 68.47008204 -37.46458931 63.65705784 -42.4375 58.625 C-43.16904297 57.88894531 -43.90058594 57.15289062 -44.65429688 56.39453125 C-46.43852723 54.59863926 -48.22036124 52.80044015 -50 51 C-48.6592337 48.01777541 -47.18121996 45.93239572 -44.87060547 43.62768555 C-43.91853714 42.67100227 -43.91853714 42.67100227 -42.94723511 41.69499207 C-42.2608194 41.01576187 -41.57440369 40.33653168 -40.8671875 39.63671875 C-39.8011882 38.57140678 -39.8011882 38.57140678 -38.71365356 37.48457336 C-37.20795094 35.98189043 -35.69982002 34.48163732 -34.18945312 32.98364258 C-31.89923697 30.71154523 -29.61698689 28.43168678 -27.3359375 26.15039062 C-25.86765572 24.68703005 -24.39891977 23.22412502 -22.9296875 21.76171875 C-22.25541718 21.08856125 -21.58114685 20.41540375 -20.88644409 19.72184753 C-16.94582051 15.81968728 -12.90196304 12.09097674 -8.697052 8.47467041 C-6.71244314 6.75012458 -4.83960514 4.94043024 -3 3.0625 C-2.4225 2.47597656 -1.845 1.88945313 -1.25 1.28515625 C-0.63125 0.64900391 -0.63125 0.64900391 0 0 Z " fill="#FF0000" transform="translate(255,32)"/>
<path d="M0 0 C3.66752005 1.5391801 5.98580573 3.75485452 8.765625 6.5703125 C9.65507813 7.46621094 10.54453125 8.36210937 11.4609375 9.28515625 C12.38132813 10.22230469 13.30171875 11.15945312 14.25 12.125 C15.19484856 13.07988637 16.14015633 14.03431859 17.0859375 14.98828125 C19.39518338 17.32109087 21.69963203 19.65844086 24 22 C18.75541414 28.36590304 12.97902678 34.13570612 7.125 39.9375 C6.14039081 40.91708237 5.156014 41.89689837 4.171875 42.87695312 C1.78351797 45.25360252 -0.60715212 47.62787356 -3 50 C-1.37843976 54.10108886 1.5767703 56.83148167 4.6640625 59.859375 C5.49216934 60.683237 5.49216934 60.683237 6.33700562 61.52374268 C8.09501815 63.27059293 9.8598689 65.01034601 11.625 66.75 C12.8207708 67.93573591 14.01608865 69.1219288 15.2109375 70.30859375 C18.13540253 73.21105085 21.06601874 76.1071641 24 79 C19.47008204 84.43733055 14.65705784 89.46458931 9.625 94.4375 C8.88894531 95.16904297 8.15289062 95.90058594 7.39453125 96.65429688 C5.59863926 98.43852723 3.80044015 100.22036124 2 102 C-0.98222459 100.6592337 -3.06760428 99.18121996 -5.37231445 96.87060547 C-6.32899773 95.91853714 -6.32899773 95.91853714 -7.30500793 94.94723511 C-7.98423813 94.2608194 -8.66346832 93.57440369 -9.36328125 92.8671875 C-10.07348923 92.1565213 -10.7836972 91.4458551 -11.51542664 90.71365356 C-13.01810957 89.20795094 -14.51836268 87.69982002 -16.01635742 86.18945312 C-18.28845477 83.89923697 -20.56831322 81.61698689 -22.84960938 79.3359375 C-24.31296995 77.86765572 -25.77587498 76.39891977 -27.23828125 74.9296875 C-27.91143875 74.25541718 -28.58459625 73.58114685 -29.27815247 72.88644409 C-33.18031272 68.94582051 -36.90902326 64.90196304 -40.52532959 60.697052 C-42.24987542 58.71244314 -44.05956976 56.83960514 -45.9375 55 C-46.81728516 54.13375 -46.81728516 54.13375 -47.71484375 53.25 C-48.35099609 52.63125 -48.35099609 52.63125 -49 52 C-47.41060574 48.06785699 -44.83657498 45.66979654 -41.8125 42.75 C-38.74785033 39.78393347 -35.8263297 36.83135953 -33.0703125 33.578125 C-27.12000214 26.69611379 -20.51204616 20.40821791 -14.0625 14 C-12.69703255 12.63955682 -11.33179614 11.27888169 -9.96679688 9.91796875 C-6.64719114 6.6092969 -3.32446727 3.30378678 0 0 Z " fill="#FF0000" transform="translate(81,205)"/>
<path d="M0 0 C6.36590304 5.24458586 12.13570612 11.02097322 17.9375 16.875 C18.91708237 17.85960919 19.89689837 18.843986 20.87695312 19.828125 C23.25360252 22.21648203 25.62787356 24.60715212 28 27 C32.10108886 25.37843976 34.83148167 22.4232297 37.859375 19.3359375 C38.40861633 18.78386627 38.95785767 18.23179504 39.52374268 17.66299438 C41.27059293 15.90498185 43.01034601 14.1401311 44.75 12.375 C45.93573591 11.1792292 47.1219288 9.98391135 48.30859375 8.7890625 C51.21105085 5.86459747 54.1071641 2.93398126 57 0 C62.43733055 4.52991796 67.46458931 9.34294216 72.4375 14.375 C73.16904297 15.11105469 73.90058594 15.84710938 74.65429688 16.60546875 C76.43852723 18.40136074 78.22036124 20.19955985 80 22 C78.6592337 24.98222459 77.18121996 27.06760428 74.87060547 29.37231445 C74.23589325 30.0101033 73.60118103 30.64789215 72.94723511 31.30500793 C72.2608194 31.98423813 71.57440369 32.66346832 70.8671875 33.36328125 C70.1565213 34.07348923 69.4458551 34.7836972 68.71365356 35.51542664 C67.20795094 37.01810957 65.69982002 38.51836268 64.18945312 40.01635742 C61.89923697 42.28845477 59.61698689 44.56831322 57.3359375 46.84960938 C55.86765572 48.31296995 54.39891977 49.77587498 52.9296875 51.23828125 C52.25541718 51.91143875 51.58114685 52.58459625 50.88644409 53.27815247 C46.94582051 57.18031272 42.90196304 60.90902326 38.697052 64.52532959 C36.71244314 66.24987542 34.83960514 68.05956976 33 69.9375 C32.4225 70.52402344 31.845 71.11054688 31.25 71.71484375 C30.63125 72.35099609 30.63125 72.35099609 30 73 C25.90227343 71.39017885 23.23514706 68.42394174 20.25 65.3125 C17.11363552 62.0641225 13.96073545 58.93033444 10.515625 56.0078125 C3.8301053 50.23344641 -2.2783225 43.82581247 -8.5 37.5625 C-9.81226585 36.24520941 -11.12476395 34.92815014 -12.4375 33.61132812 C-15.62768506 30.4102139 -18.81470651 27.20598135 -22 24 C-20.4608199 20.33247995 -18.24514548 18.01419427 -15.4296875 15.234375 C-14.08583984 13.90019531 -14.08583984 13.90019531 -12.71484375 12.5390625 C-11.77769531 11.61867188 -10.84054688 10.69828125 -9.875 9.75 C-8.92011363 8.80515144 -7.96568141 7.85984367 -7.01171875 6.9140625 C-4.67890913 4.60481662 -2.34155914 2.30036797 0 0 Z " fill="#FF0000" transform="translate(227,407)"/>
<path d="M0 0 C10.56 0 21.12 0 32 0 C32 23.76 32 47.52 32 72 C8.24 72 -15.52 72 -40 72 C-40 61.44 -40 50.88 -40 40 C-26.8 40 -13.6 40 0 40 C0 26.8 0 13.6 0 0 Z " fill="#FF0000" transform="translate(383,343)"/>
<path d="M0 0 C10.56 0 21.12 0 32 0 C32 13.2 32 26.4 32 40 C45.2 40 58.4 40 72 40 C72 50.56 72 61.12 72 72 C48.24 72 24.48 72 0 72 C0 48.24 0 24.48 0 0 Z " fill="#FF0000" transform="translate(97,343)"/>
<path d="M0 0 C23.76 0 47.52 0 72 0 C72 23.76 72 47.52 72 72 C61.44 72 50.88 72 40 72 C40 58.8 40 45.6 40 32 C26.8 32 13.6 32 0 32 C0 21.44 0 10.88 0 0 Z " fill="#FF0000" transform="translate(343,97)"/>
<path d="M0 0 C23.76 0 47.52 0 72 0 C72 10.56 72 21.12 72 32 C58.8 32 45.6 32 32 32 C32 45.2 32 58.4 32 72 C21.44 72 10.88 72 0 72 C0 48.24 0 24.48 0 0 Z " fill="#FF0000" transform="translate(97,97)"/>
</svg>
