<?xml version="1.0" encoding="UTF-8" standalone="no"?>
<!-- Uploaded to: SVG Repo, www.svgrepo.com, Generator: SVG Repo Mixer Tools -->

<svg
   width="800px"
   height="800px"
   viewBox="0 0 16 16"
   version="1.1"
   id="svg1"
   sodipodi:docname="sunny.svg"
   inkscape:export-filename="sunny.svg"
   inkscape:export-xdpi="96"
   inkscape:export-ydpi="96"
   inkscape:version="1.4.3 (0d15f75042, 2025-12-25)"
   xmlns:inkscape="http://www.inkscape.org/namespaces/inkscape"
   xmlns:sodipodi="http://sodipodi.sourceforge.net/DTD/sodipodi-0.dtd"
   xmlns="http://www.w3.org/2000/svg"
   xmlns:svg="http://www.w3.org/2000/svg">
  <defs
     id="defs1" />
  <sodipodi:namedview
     id="namedview1"
     pagecolor="#ffffff"
     bordercolor="#000000"
     borderopacity="0.25"
     inkscape:showpageshadow="2"
     inkscape:pageopacity="0.0"
     inkscape:pagecheckerboard="0"
     inkscape:deskcolor="#d1d1d1"
     inkscape:zoom="1.41875"
     inkscape:cx="400.35242"
     inkscape:cy="400"
     inkscape:window-width="1266"
     inkscape:window-height="1378"
     inkscape:window-x="0"
     inkscape:window-y="0"
     inkscape:window-maximized="1"
     inkscape:current-layer="svg1" />
  <path
     d="m 7.5 0 c -0.277344 0 -0.5 0.222656 -0.5 0.5 v 2 c 0 0.277344 0.222656 0.5 0.5 0.5 h 1 c 0.277344 0 0.5 -0.222656 0.5 -0.5 v -2 c 0 -0.277344 -0.222656 -0.5 -0.5 -0.5 z m -4.449219 1.84375 c -0.128906 0 -0.253906 0.046875 -0.351562 0.144531 l -0.710938 0.710938 c -0.195312 0.195312 -0.195312 0.507812 0 0.707031 l 1.417969 1.414062 c 0.195312 0.195313 0.507812 0.195313 0.707031 0 l 0.707031 -0.707031 c 0.195313 -0.199219 0.195313 -0.511719 0 -0.707031 l -1.414062 -1.417969 c -0.101562 -0.097656 -0.226562 -0.144531 -0.355469 -0.144531 z m 9.898438 0 c -0.128907 0 -0.253907 0.046875 -0.355469 0.144531 l -1.414062 1.417969 c -0.195313 0.195312 -0.195313 0.507812 0 0.707031 l 0.707031 0.707031 c 0.199219 0.195313 0.511719 0.195313 0.707031 0 l 1.417969 -1.414062 c 0.195312 -0.199219 0.195312 -0.511719 0 -0.707031 l -0.710938 -0.710938 c -0.097656 -0.097656 -0.222656 -0.144531 -0.351562 -0.144531 z m -4.949219 2.164062 c -2.195312 0 -4 1.804688 -4 4 c 0 2.191407 1.804688 4 4 4 s 4 -1.808593 4 -4 c 0 -2.195312 -1.804688 -4 -4 -4 z m -7.5 2.992188 c -0.277344 0 -0.5 0.222656 -0.5 0.5 v 1 c 0 0.277344 0.222656 0.5 0.5 0.5 h 2 c 0.277344 0 0.5 -0.222656 0.5 -0.5 v -1 c 0 -0.277344 -0.222656 -0.5 -0.5 -0.5 z m 13 0 c -0.277344 0 -0.5 0.222656 -0.5 0.5 v 1 c 0 0.277344 0.222656 0.5 0.5 0.5 h 2 c 0.277344 0 0.5 -0.222656 0.5 -0.5 v -1 c 0 -0.277344 -0.222656 -0.5 -0.5 -0.5 z m -9.742188 4.035156 c -0.128906 0 -0.253906 0.046875 -0.351562 0.144532 l -1.417969 1.414062 c -0.195312 0.199219 -0.195312 0.511719 0 0.707031 l 0.710938 0.710938 c 0.195312 0.195312 0.507812 0.195312 0.707031 0 l 1.414062 -1.417969 c 0.195313 -0.195312 0.195313 -0.507812 0 -0.707031 l -0.707031 -0.707031 c -0.101562 -0.097657 -0.226562 -0.144532 -0.355469 -0.144532 z m 8.484376 0 c -0.128907 0 -0.253907 0.046875 -0.355469 0.144532 l -0.707031 0.707031 c -0.195313 0.199219 -0.195313 0.511719 0 0.707031 l 1.414062 1.417969 c 0.199219 0.195312 0.511719 0.195312 0.707031 0 l 0.710938 -0.710938 c 0.195312 -0.195312 0.195312 -0.507812 0 -0.707031 l -1.417969 -1.414062 c -0.097656 -0.097657 -0.222656 -0.144532 -0.351562 -0.144532 z m -4.742188 1.964844 c -0.277344 0 -0.5 0.222656 -0.5 0.5 v 2 c 0 0.277344 0.222656 0.5 0.5 0.5 h 1 c 0.277344 0 0.5 -0.222656 0.5 -0.5 v -2 c 0 -0.277344 -0.222656 -0.5 -0.5 -0.5 z m 0 0"
     fill="#2e3436"
     id="path1" />
  <path
     style="fill:#ff0909;stroke:#ff0e0e;stroke-width:0.351013;stroke-linecap:round;stroke-linejoin:bevel;fill-opacity:1"
     d="M 377.76211,598.76944 C 332.66339,593.30218 291.75841,573.45935 259.49543,541.39878 204.20397,486.4542 185.86757,404.81955 212.5143,332.23616 c 3.91364,-10.66043 14.4204,-31.36805 20.69243,-40.78242 37.95646,-56.97295 99.83172,-90.57268 166.79327,-90.57268 66.98106,0 128.87294,33.60978 166.78814,90.57268 6.32581,9.50375 16.87365,30.27356 20.71113,40.78242 9.14347,25.03919 13.46492,54.49515 11.70216,79.76468 -1.9191,27.51091 -7.80334,49.94084 -19.41053,73.99035 -8.87873,18.3963 -19.36527,33.93396 -32.97243,48.85448 -28.74658,31.52122 -69.10856,54.08888 -110.51891,61.79462 -17.1307,3.18772 -42.26447,4.1019 -58.53745,2.12915 z"
     id="path2"
     transform="scale(0.02)" />
  <path
     style="fill:#ff0909;fill-opacity:1;stroke:#ff0e0e;stroke-width:0.351013;stroke-linecap:round;stroke-linejoin:bevel"
     d="m 606.1176,247.18561 c -1.77188,-0.50176 -4.62651,-1.74598 -6.34361,-2.76491 -1.7171,-1.01894 -12.22452,-10.99431 -23.34982,-22.16749 -23.43043,-23.5313 -24.13777,-24.5397 -24.13777,-34.4118 0,-10.49524 -1.29361,-8.8866 42.04328,-52.28171 25.2177,-25.25159 39.23086,-38.778597 41.37331,-39.93797 7.23254,-3.913858 16.1708,-3.942446 23.27758,-0.07445 2.1702,1.181174 10.63432,9.1205 23.8726,22.39247 23.73292,23.79329 24.40489,24.74665 24.43975,34.67419 0.0369,10.49195 0.99798,9.30112 -42.76753,52.98844 -33.11301,33.05385 -38.80671,38.44656 -42.25374,40.02008 -4.81477,2.19787 -11.59562,2.85403 -16.15405,1.56315 z"
     id="path3"
     transform="scale(0.02)" />
  <path
     style="fill:#ff0909;fill-opacity:1;stroke:#ff0e0e;stroke-width:0.351013;stroke-linecap:round;stroke-linejoin:bevel"
     d="m 668.84888,448.73643 c -7.00032,-1.90614 -12.91698,-6.84436 -16.20452,-13.52479 l -1.71925,-3.49358 V 400 368.28194 l 2.0692,-4.08373 c 2.52053,-4.97447 6.91985,-9.16043 12.25669,-11.66224 l 4.0001,-1.87518 h 55.68282 55.68282 l 4.43452,2.04771 c 5.5076,2.5432 10.67718,7.98275 12.96065,13.63747 1.62073,4.01353 1.63567,4.32076 1.63567,33.65403 0,29.33327 -0.0149,29.6405 -1.63567,33.65403 -2.28347,5.65471 -7.45305,11.09427 -12.96065,13.63747 l -4.43452,2.04771 -54.27313,0.13722 c -41.45683,0.10482 -55.03389,-0.0699 -57.49473,-0.74 z"
     id="path4"
     transform="scale(0.02)" />
  <path
     style="fill:#ff0909;fill-opacity:1;stroke:#ff0e0e;stroke-width:0.351013;stroke-linecap:round;stroke-linejoin:bevel"
     d="m 641.35989,706.74509 c -1.77188,-0.50177 -4.6265,-1.74621 -6.34361,-2.76542 -1.7171,-1.01921 -20.15405,-18.92409 -40.97099,-39.78864 -43.01683,-43.11518 -41.75889,-41.54776 -41.75889,-52.03244 0,-9.89622 0.67457,-10.85364 24.41989,-34.65937 12.965,-12.99798 21.70292,-21.20451 23.75222,-22.30775 6.72768,-3.62183 13.20929,-3.93036 21.2155,-1.00987 3.58248,1.30681 6.80763,4.33578 42.50117,39.91582 44.16468,44.02424 43.15466,42.77596 43.11774,53.28864 -0.0349,9.92803 -0.70029,10.87177 -24.50987,34.76089 -17.05341,17.11037 -21.30519,21.0077 -24.80962,22.74135 -5.04286,2.49473 -11.72399,3.24143 -16.61354,1.85679 z"
     id="path5"
     transform="scale(0.02)" />
  <path
     style="fill:#ff0909;fill-opacity:1;stroke:#ff0e0e;stroke-width:0.351013;stroke-linecap:round;stroke-linejoin:bevel"
     d="m 371.76723,799.32925 c -8.33713,-1.29046 -15.56527,-6.71561 -19.07682,-14.31828 l -2.02962,-4.39423 v -55.6978 -55.69781 l 2.31665,-4.70562 c 2.5631,-5.20621 6.74889,-9.37572 12.01826,-11.97153 3.28027,-1.61593 3.34387,-1.61887 35.0043,-1.61887 h 31.71806 l 3.9764,1.95275 c 4.84321,2.37844 9.26183,7.02364 11.76957,12.37314 l 1.87518,4.0001 v 55.68282 55.68282 l -2.04771,4.43452 c -2.55762,5.53882 -7.99242,10.69242 -13.63747,12.93187 -3.94322,1.56431 -4.76926,1.61072 -31.18707,1.75226 -14.92511,0.0799 -28.73999,-0.1028 -30.69973,-0.40614 z"
     id="path6"
     transform="scale(0.02)" />
  <path
     style="fill:#ff0909;fill-opacity:1;stroke:#ff0e0e;stroke-width:0.351013;stroke-linecap:round;stroke-linejoin:bevel"
     d="m 146.55813,706.74509 c -1.77188,-0.50177 -4.62651,-1.74599 -6.34361,-2.76492 C 138.49741,702.96123 127.99,692.98586 116.8647,681.81268 93.446691,658.29386 92.741856,657.28941 92.707079,647.38606 c -0.03692,-10.51268 -1.046943,-9.2644 43.117731,-53.28864 35.69355,-35.58004 38.9187,-38.60901 42.50118,-39.91582 8.00621,-2.92049 14.48782,-2.61196 21.21551,1.00987 2.04929,1.10324 10.78721,9.30977 23.7522,22.30775 23.74533,23.80573 24.41989,24.76315 24.41989,34.65937 0,10.49445 1.29988,8.87801 -42.11121,52.3668 -32.791,32.84969 -38.80048,38.56625 -42.43071,40.3625 -5.04277,2.49517 -11.72346,3.24199 -16.61354,1.8572 z"
     id="path7"
     transform="scale(0.02)" />
  <path
     style="fill:#ff0909;fill-opacity:1;stroke:#ff0e0e;stroke-width:0.351013;stroke-linecap:round;stroke-linejoin:bevel"
     d="M 18.678414,448.71401 C 10.89017,446.21496 4.8643049,440.77013 1.9762129,433.62229 0.37062125,429.64856 0.35242291,429.27175 0.35242291,400 c 0,-29.33327 0.0149324,-29.6405 1.63566449,-33.65403 C 4.2715571,360.69125 9.441144,355.2517 14.948734,352.7085 l 4.434526,-2.04771 H 75.066079 130.7489 l 4.0001,1.87518 c 5.33684,2.50181 9.73616,6.68777 12.2567,11.66224 l 2.06919,4.08373 V 400 c 0,31.66043 -0.003,31.72403 -1.61888,35.0043 -2.59553,5.26881 -6.76537,9.45516 -11.97089,12.01826 l -4.705,2.31665 -54.64116,0.13973 c -42.850905,0.10959 -55.249518,-0.0555 -57.460546,-0.76493 z"
     id="path8"
     transform="scale(0.02)" />
  <path
     style="fill:#ff0909;fill-opacity:1;stroke:#ff0e0e;stroke-width:0.351013;stroke-linecap:round;stroke-linejoin:bevel"
     d="m 182.36791,247.38196 c -6.31402,-1.59019 -8.57721,-3.60842 -46.89329,-41.81779 -43.768661,-43.64676 -42.804405,-42.45292 -42.767541,-52.95023 0.03486,-9.92754 0.706829,-10.8809 24.439741,-34.67419 13.23829,-13.27197 21.7024,-21.211297 23.87261,-22.392471 7.10678,-3.867995 16.04505,-3.839407 23.27758,0.07445 2.14245,1.159373 16.15561,14.686381 41.37331,39.937971 43.33689,43.39511 42.04327,41.78647 42.04327,52.28171 0,9.89671 -0.66801,10.8445 -24.49001,34.74606 -17.05342,17.11038 -21.30519,21.00771 -24.80962,22.74136 -4.70465,2.32741 -11.50307,3.19728 -16.04605,2.05313 z"
     id="path9"
     transform="scale(0.02)" />
  <path
     style="fill:#ff0909;fill-opacity:1;stroke:#ff0e0e;stroke-width:0.351013;stroke-linecap:round;stroke-linejoin:bevel"
     d="m 367.504,148.44201 c -6.31553,-2.00792 -11.85774,-7.10688 -15.01754,-13.81646 l -1.82567,-3.87665 V 75.066079 19.38326 l 2.04771,-4.434526 C 355.2517,9.441144 360.69125,4.2715571 366.34597,1.9880874 370.3595,0.36735535 370.66673,0.35242291 400,0.35242291 c 29.33327,0 29.6405,0.0149324 33.65403,1.63566449 5.65471,2.2834697 11.09427,7.4530566 13.63747,12.9606466 l 2.04771,4.434526 V 75.066079 130.7489 l -1.87518,4.0001 c -2.50182,5.33684 -6.68777,9.73616 -11.66224,12.2567 l -4.08373,2.06919 -30.66079,0.14337 c -23.59393,0.11033 -31.32747,-0.0686 -33.55327,-0.77625 z"
     id="path10"
     transform="scale(0.02)" />
</svg>
