<?xml version="1.0" encoding="UTF-8"?>
<svg version="1.1" xmlns="http://www.w3.org/2000/svg" width="512" height="512">
<path d="M0 0 C10.56 0 21.12 0 32 0 C32 9.9 32 19.8 32 30 C51.8 30 71.6 30 92 30 C92 39.9 92 49.8 92 60 C111.8 60 131.6 60 152 60 C152 69.9 152 79.8 152 90 C161.9 90 171.8 90 182 90 C182 99.9 182 109.8 182 120 C191.9 120 201.8 120 212 120 C212 129.9 212 139.8 212 150 C221.9 150 231.8 150 242 150 C242 169.8 242 189.6 242 210 C251.9 210 261.8 210 272 210 C272 240.36 272 270.72 272 302 C261.77 302 251.54 302 241 302 C241 292.1 241 282.2 241 272 C211.63 272 182.26 272 152 272 C152 281.9 152 291.8 152 302 C141.77 302 131.54 302 121 302 C121 292.1 121 282.2 121 272 C91.63 272 62.26 272 32 272 C32 341.3 32 410.6 32 482 C21.77 482 11.54 482 1 482 C1 491.9 1 501.8 1 512 C-19.13 512 -39.26 512 -60 512 C-60 502.1 -60 492.2 -60 482 C-69.9 482 -79.8 482 -90 482 C-90 461.87 -90 441.74 -90 421 C-79.77 421 -69.54 421 -59 421 C-59 440.8 -59 460.6 -59 481 C-39.53 481 -20.06 481 0 481 C0 412.03 0 343.06 0 272 C-29.37 272 -58.74 272 -89 272 C-89 281.9 -89 291.8 -89 302 C-99.23 302 -109.46 302 -120 302 C-120 292.1 -120 282.2 -120 272 C-149.37 272 -178.74 272 -209 272 C-209 281.9 -209 291.8 -209 302 C-219.23 302 -229.46 302 -240 302 C-240 271.64 -240 241.28 -240 210 C-230.1 210 -220.2 210 -210 210 C-210 190.2 -210 170.4 -210 150 C-200.1 150 -190.2 150 -180 150 C-180 140.1 -180 130.2 -180 120 C-170.1 120 -160.2 120 -150 120 C-150 110.1 -150 100.2 -150 90 C-140.1 90 -130.2 90 -120 90 C-120 80.1 -120 70.2 -120 60 C-100.2 60 -80.4 60 -60 60 C-60 50.1 -60 40.2 -60 30 C-40.2 30 -20.4 30 0 30 C0 20.1 0 10.2 0 0 Z M-59 61 C-59 70.9 -59 80.8 -59 91 C-78.8 91 -98.6 91 -119 91 C-119 100.9 -119 110.8 -119 121 C-128.9 121 -138.8 121 -149 121 C-149 130.9 -149 140.8 -149 151 C-158.9 151 -168.8 151 -179 151 C-179 170.8 -179 190.6 -179 211 C-188.9 211 -198.8 211 -209 211 C-209 220.57 -209 230.14 -209 240 C-159.83 240 -110.66 240 -60 240 C-60 210.3 -60 180.6 -60 150 C-50.1 150 -40.2 150 -30 150 C-30 130.2 -30 110.4 -30 90 C-20.1 90 -10.2 90 0 90 C0 80.43 0 70.86 0 61 C-19.47 61 -38.94 61 -59 61 Z M32 61 C32 70.57 32 80.14 32 90 C41.9 90 51.8 90 62 90 C62 109.8 62 129.6 62 150 C71.9 150 81.8 150 92 150 C92 179.7 92 209.4 92 240 C141.17 240 190.34 240 241 240 C241 230.43 241 220.86 241 211 C231.1 211 221.2 211 211 211 C211 191.2 211 171.4 211 151 C201.1 151 191.2 151 181 151 C181 141.1 181 131.2 181 121 C171.1 121 161.2 121 151 121 C151 111.1 151 101.2 151 91 C131.2 91 111.4 91 91 91 C91 81.1 91 71.2 91 61 C71.53 61 52.06 61 32 61 Z " fill="#000000" transform="translate(240,0)"/>
<path d="M0 0 C10.23 0 20.46 0 31 0 C31 10.23 31 20.46 31 31 C21.1 31 11.2 31 1 31 C1 40.9 1 50.8 1 61 C-8.9 61 -18.8 61 -29 61 C-29 70.9 -29 80.8 -29 91 C-39.23 91 -49.46 91 -60 91 C-60 80.77 -60 70.54 -60 60 C-50.1 60 -40.2 60 -30 60 C-30 50.1 -30 40.2 -30 30 C-20.1 30 -10.2 30 0 30 C0 20.1 0 10.2 0 0 Z " fill="#000000" transform="translate(60,331)"/>
<path d="M0 0 C10.23 0 20.46 0 31 0 C31 10.23 31 20.46 31 31 C21.1 31 11.2 31 1 31 C1 40.9 1 50.8 1 61 C-9.23 61 -19.46 61 -30 61 C-30 50.77 -30 40.54 -30 30 C-20.1 30 -10.2 30 0 30 C0 20.1 0 10.2 0 0 Z " fill="#000000" transform="translate(150,331)"/>
<path d="M0 0 C10.23 0 20.46 0 31 0 C31 10.23 31 20.46 31 31 C21.1 31 11.2 31 1 31 C1 40.9 1 50.8 1 61 C-9.23 61 -19.46 61 -30 61 C-30 50.77 -30 40.54 -30 30 C-20.1 30 -10.2 30 0 30 C0 20.1 0 10.2 0 0 Z " fill="#000000" transform="translate(481,0)"/>
</svg>
