<?xml version="1.0" encoding="UTF-8" standalone="no"?>
<!-- Uploaded to: SVG Repo, www.svgrepo.com, Generator: SVG Repo Mixer Tools -->

<svg
   width="1200"
   height="230"
   viewBox="0 0 35.999999 6.9"
   fill="none"
   version="1.1"
   id="svg1"
   xmlns="http://www.w3.org/2000/svg"
   xmlns:svg="http://www.w3.org/2000/svg">
  <defs
     id="defs1" />
  <path
     style="fill:#ff0505;fill-opacity:1;stroke:#ff0e1d;stroke-width:0;stroke-linecap:round;stroke-linejoin:bevel"
     d="m 32.926571,0.54623512 c 0.0018,-0.01179 0.0071,-0.02255 0.01538,-0.03133 0.02033,-0.02156 0.05454,-0.02753 0.128447,-0.02242 0.02153,0.0015 0.04224,0.0033 0.09235,0.0082 0.05787,0.0056 0.06593,0.0062 0.07788,0.0062 0.01679,1e-5 0.0268,-0.0022 0.03887,-0.0086 0.01172,-0.0062 0.01732,-0.01066 0.0687,-0.05449 0.0677,-0.05778 0.08761,-0.07387 0.110139,-0.08896 0.02803,-0.01878 0.04688,-0.02621 0.06638,-0.02616 0.03005,7.8e-5 0.05187,0.01835 0.06754,0.05657 0.01089,0.02657 0.01901,0.05669 0.03889,0.144268 0.01277,0.05624 0.01421,0.06221 0.01788,0.07337 0.0064,0.01977 0.01471,0.03015 0.03395,0.04284 0.0084,0.0056 0.01778,0.01091 0.07835,0.04477 0.08339,0.04662 0.111016,0.0644 0.13134,0.08452 0.01599,0.01583 0.0232,0.02935 0.02444,0.04585 0.0021,0.02687 -0.01632,0.05113 -0.06121,0.08095 -0.02381,0.01582 -0.04304,0.02705 -0.11497,0.06718 -0.02142,0.01195 -0.04343,0.02441 -0.04891,0.02769 -0.02916,0.01746 -0.03774,0.02836 -0.04595,0.05835 -0.0016,0.0059 -0.0082,0.03377 -0.01457,0.06192 -0.0132,0.05809 -0.02144,0.09171 -0.02737,0.111632 -0.01683,0.05653 -0.03454,0.08112 -0.06422,0.08913 -0.0091,0.0025 -0.02269,0.0023 -0.03278,-3.42e-4 -0.01836,-0.0048 -0.0386,-0.01597 -0.06529,-0.03589 -0.02144,-0.01601 -0.04131,-0.03241 -0.09775,-0.08067 -0.05396,-0.04614 -0.06096,-0.05127 -0.07687,-0.05628 -0.01454,-0.0046 -0.02842,-0.0045 -0.08075,6.05e-4 -0.104317,0.01013 -0.125966,0.01176 -0.157619,0.01183 -0.02412,5.4e-5 -0.03336,-6.05e-4 -0.04632,-0.0033 -0.02799,-0.0058 -0.04576,-0.01951 -0.05312,-0.04097 -0.0078,-0.02272 -0.0028,-0.05069 0.01826,-0.102703 0.0087,-0.02144 0.01778,-0.04175 0.0504,-0.11259486 0.02208,-0.04795 0.02558,-0.05798 0.02558,-0.07343 0,-0.01559 -0.0031,-0.02435 -0.02671,-0.07566 -0.04778,-0.103769 -0.0587,-0.129998 -0.06631,-0.159308 -0.004,-0.01546 -0.0056,-0.03255 -0.0041,-0.04279 z"
     id="path2-5" />
  <path
     style="fill:#ff0505;fill-opacity:1;stroke:#ff0e1d;stroke-width:0;stroke-linecap:round;stroke-linejoin:bevel"
     d="m 5.789598,5.1339061 c 0.0015,-0.0093 0.0056,-0.017787 0.01213,-0.024706 0.01604,-0.016999 0.04301,-0.021707 0.101292,-0.017678 0.01697,0.00115 0.03331,0.00261 0.07282,0.00643 0.04564,0.00442 0.05199,0.00491 0.06142,0.00491 0.01324,7.9e-6 0.02113,-0.00176 0.03065,-0.00677 0.0092,-0.00491 0.01366,-0.0084 0.05417,-0.042971 0.05339,-0.045564 0.06909,-0.05825 0.08685,-0.070154 0.0221,-0.014812 0.03697,-0.020671 0.05235,-0.020628 0.0237,6.11e-5 0.0409,0.014473 0.05326,0.044613 0.0086,0.020949 0.01499,0.044704 0.03067,0.1137674 0.01007,0.044353 0.01121,0.04906 0.0141,0.057862 0.0051,0.015588 0.0116,0.023779 0.02677,0.033787 0.0067,0.00442 0.01403,0.0086 0.06179,0.035308 0.06576,0.036768 0.08755,0.050786 0.103573,0.066652 0.01261,0.012486 0.0183,0.023149 0.01927,0.036156 0.0016,0.021192 -0.01287,0.040324 -0.04827,0.063838 -0.01878,0.012474 -0.03394,0.021331 -0.09066,0.052979 -0.01689,0.00942 -0.03425,0.019247 -0.03857,0.02184 -0.023,0.013771 -0.02976,0.022367 -0.03623,0.046012 -0.0013,0.00466 -0.0064,0.026632 -0.01149,0.04883 -0.01041,0.045807 -0.01691,0.072321 -0.02159,0.088031 -0.01327,0.044577 -0.02724,0.063966 -0.05064,0.070284 -0.0072,0.00194 -0.0179,0.00182 -0.02585,-2.702e-4 -0.01448,-0.00382 -0.03044,-0.012589 -0.05148,-0.028304 -0.01691,-0.012625 -0.03258,-0.02556 -0.07709,-0.063615 -0.04255,-0.036386 -0.04807,-0.040427 -0.06062,-0.044383 -0.01147,-0.00364 -0.02242,-0.00351 -0.06368,4.768e-4 -0.08226,0.00799 -0.09933,0.00928 -0.124296,0.00933 -0.01902,4.3e-5 -0.02631,-4.768e-4 -0.03653,-0.00261 -0.02208,-0.0046 -0.03609,-0.015388 -0.04189,-0.032309 -0.0061,-0.017914 -0.0022,-0.039972 0.0144,-0.08099 0.0069,-0.016909 0.01402,-0.032921 0.03975,-0.08879 0.01741,-0.03781 0.02017,-0.045722 0.02017,-0.057905 0,-0.012298 -0.0024,-0.019205 -0.02107,-0.059662 C 5.807397,5.2114371 5.798787,5.1907528 5.792787,5.16764 5.789587,5.155445 5.788387,5.141971 5.789587,5.133895 Z"
     id="path2-5-2" />
  <path
     style="fill:#ff0505;fill-opacity:1;stroke:#ff0e1d;stroke-width:0;stroke-linecap:round;stroke-linejoin:bevel"
     d="m 2.6115562,2.4349918 c -0.0015,0.0093 -0.0056,0.017787 -0.01213,0.024706 -0.01604,0.016999 -0.04301,0.021707 -0.101292,0.017678 -0.01697,-0.00115 -0.03331,-0.00261 -0.07282,-0.00643 -0.04564,-0.00442 -0.05199,-0.00491 -0.06142,-0.00491 -0.01324,-7.9e-6 -0.02113,0.00176 -0.03065,0.00677 -0.0092,0.00491 -0.01366,0.0084 -0.05417,0.042971 -0.05339,0.045564 -0.06909,0.05825 -0.08685,0.070154 -0.0221,0.014812 -0.03697,0.020671 -0.05235,0.020628 -0.0237,-6.11e-5 -0.0409,-0.014473 -0.05326,-0.044613 -0.0086,-0.020949 -0.01499,-0.044704 -0.03067,-0.1137674 -0.01007,-0.044353 -0.01121,-0.04906 -0.0141,-0.057862 -0.0051,-0.015588 -0.0116,-0.023779 -0.02677,-0.033787 -0.0067,-0.00442 -0.01403,-0.0086 -0.06179,-0.035308 -0.06576,-0.036768 -0.08755,-0.050786 -0.103573,-0.066652 -0.01261,-0.012486 -0.0183,-0.023149 -0.01927,-0.036156 -0.0016,-0.021192 0.01287,-0.040324 0.04827,-0.063838 0.01878,-0.012474 0.03394,-0.021331 0.09066,-0.052979 0.01689,-0.00942 0.03425,-0.019247 0.03857,-0.02184 0.023,-0.013771 0.02976,-0.022367 0.03623,-0.046012 0.0013,-0.00466 0.0064,-0.026632 0.01149,-0.04883 0.01041,-0.045807 0.01691,-0.072321 0.02159,-0.088031 0.01327,-0.044577 0.02724,-0.063966 0.05064,-0.070284 0.0072,-0.00194 0.0179,-0.00182 0.02585,2.702e-4 0.01448,0.00382 0.03044,0.012589 0.05148,0.028304 0.01691,0.012625 0.03258,0.02556 0.07709,0.063615 0.04255,0.036386 0.04807,0.040427 0.06062,0.044383 0.01147,0.00364 0.02242,0.00351 0.06368,-4.768e-4 0.08226,-0.00799 0.09933,-0.00928 0.124296,-0.00933 0.01902,-4.3e-5 0.02631,4.768e-4 0.03653,0.00261 0.02208,0.0046 0.03609,0.015388 0.04189,0.032309 0.0061,0.017914 0.0022,0.039972 -0.0144,0.08099 -0.0069,0.016909 -0.01402,0.032921 -0.03975,0.08879 -0.01741,0.03781 -0.02017,0.045722 -0.02017,0.057905 0,0.012298 0.0024,0.019205 0.02107,0.059662 0.03768,0.08183 0.04629,0.1025143 0.05229,0.1256271 0.0032,0.012195 0.0044,0.025669 0.0032,0.033745 z"
     id="path2-5-2-7" />
  <path
     style="fill:#000000;fill-opacity:1;stroke:#ff0e1d;stroke-width:0;stroke-linecap:round;stroke-linejoin:bevel"
     d="m 31.412803,2.246114 c 0.0076,-0.022022 0.0215,-0.040821 0.04047,-0.054792 0.04657,-0.03429 0.114357,-0.0338 0.254471,0.00182 0.04081,0.010371 0.07995,0.021149 0.174475,0.047908 0.109179,0.030938 0.124425,0.035002 0.147368,0.039186 0.03224,0.00588 0.05223,0.00513 0.07764,-0.00291 0.02467,-0.00781 0.037,-0.014402 0.150936,-0.080639 0.150176,-0.087303 0.194032,-0.1112337 0.242557,-0.1323535 0.06038,-0.026279 0.09917,-0.033961 0.13661,-0.027049 0.05768,0.010646 0.09319,0.053359 0.109944,0.1322202 0.01164,0.054808 0.01672,0.1154968 0.02428,0.2906036 0.0049,0.1124558 0.0056,0.124423 0.0087,0.14714 0.0056,0.040223 0.01772,0.063049 0.05023,0.094128 0.01426,0.013642 0.03034,0.027158 0.134807,0.1133348 0.143833,0.1186458 0.190675,0.1624408 0.222673,0.2081695 0.02518,0.035977 0.0343,0.064468 0.03092,0.096572 -0.0055,0.052319 -0.0492,0.092489 -0.145809,0.1340652 -0.05125,0.022055 -0.09209,0.036915 -0.244227,0.088844 -0.0453,0.015463 -0.09191,0.031704 -0.103582,0.036096 -0.06209,0.023345 -0.08238,0.041274 -0.108601,0.095987 -0.0052,0.010771 -0.02749,0.061991 -0.0496,0.1138112 -0.04563,0.1069297 -0.07321,0.1686109 -0.09155,0.2047926 -0.05205,0.1026639 -0.09465,0.1436916 -0.154438,0.1487105 -0.01834,0.00154 -0.04438,-0.0035 -0.06283,-0.012107 -0.03358,-0.015662 -0.06855,-0.04414 -0.112819,-0.091721 -0.03557,-0.038233 -0.06801,-0.076668 -0.159523,-0.1890442 C 31.898405,3.5414437 31.886755,3.5291579 31.857956,3.513969 31.831626,3.500134 31.804926,3.495481 31.70269,3.486946 31.498844,3.469972 31.456705,3.465528 31.3959,3.454611 31.34956,3.446291 31.33205,3.441776 31.30811,3.432136 31.25639,3.411212 31.22705,3.378686 31.22042,3.334914 c -0.007,-0.046333 0.01229,-0.098307 0.07095,-0.1908272 0.02417,-0.038141 0.04872,-0.073955 0.136108,-0.198597 0.05915,-0.084356 0.06937,-0.1023994 0.07476,-0.1320696 0.0054,-0.029949 0.0026,-0.047836 -0.02487,-0.1546072 -0.0555,-0.2159426 -0.06731,-0.2701207 -0.07169,-0.3290589 -0.0023,-0.031099 5.27e-4,-0.064477 0.0072,-0.083576 z"
     id="path2-7" />
  <path
     style="fill:#000000;fill-opacity:1;stroke:#ff0e1d;stroke-width:0;stroke-linecap:round;stroke-linejoin:bevel"
     d="m 5.2521731,4.7373013 c -0.0017,0.031518 -0.01279,0.061222 -0.0323,0.0865 -0.047899,0.062051 -0.1364144,0.086704 -0.3322956,0.092552 -0.057061,0.0017 -0.112069,0.00229 -0.2452404,0.00265 -0.1538184,4.018e-4 -0.1752009,8.063e-4 -0.2066625,0.00391 -0.044206,0.00436 -0.069969,0.012788 -0.1000843,0.03276 -0.02923,0.019384 -0.042835,0.032566 -0.1666125,0.1613884 -0.1631385,0.1697826 -0.2113643,0.2173279 -0.2667216,0.262951 -0.068873,0.056767 -0.1165708,0.08125 -0.167935,0.086211 C 3.6551891,5.473866 3.5929722,5.4314531 3.5417254,5.3349323 3.5061105,5.2678499 3.4768587,5.1906568 3.4016737,4.9652873 3.3533827,4.8205533 3.3480032,4.805222 3.3354451,4.7767849 3.313207,4.726435 3.2888312,4.7012388 3.2348859,4.6728514 3.2112105,4.6603913 3.1852173,4.6487771 3.0169346,4.5754436 2.7852371,4.4744787 2.7078583,4.4348847 2.6491008,4.3872293 2.6028743,4.3497337 2.5803669,4.3160206 2.5727856,4.2729171 2.5603944,4.2026972 2.6023924,4.1340339 2.7127892,4.0438182 2.771342,3.9959654 2.8190347,3.9613632 2.9979153,3.8369373 3.0511783,3.7998883 3.1058642,3.7613323 3.1194383,3.7512593 3.1916413,3.6976703 3.2113953,3.6667413 3.22516,3.5856609 3.2279,3.5696839 3.237856,3.4946179 3.247344,3.4188437 3.266926,3.2624749 3.27985,3.171808 3.290252,3.1178159 3.319785,2.9646107 3.360006,2.895254 3.4360384,2.8664131 c 0.023331,-0.00885 0.059132,-0.012025 0.086396,-0.00766 0.049606,0.00794 0.1057905,0.031954 0.181235,0.077447 0.060624,0.036557 0.1172238,0.074543 0.2784024,0.1868487 0.1541013,0.1073747 0.1738713,0.1190414 0.2170645,0.1280924 0.039479,0.00827 0.076003,0.00437 0.212422,-0.022667 0.2719773,-0.053918 0.3285473,-0.063849 0.4118602,-0.072299 0.063494,-0.00644 0.087996,-0.00713 0.1228023,-0.00344 0.075204,0.00797 0.12558,0.039421 0.1505336,0.093988 0.02642,0.057765 0.020599,0.1327053 -0.021267,0.2751426 -0.017269,0.058718 -0.035899,0.1145501 -0.1032961,0.3095778 -0.045615,0.1319942 -0.05219,0.1593164 -0.048156,0.199995 0.00407,0.041062 0.01452,0.063311 0.09008,0.1922002 0.152878,0.2607054 0.1884698,0.3269059 0.2161704,0.4020768 0.014616,0.039666 0.023357,0.08422 0.02188,0.1115795 z"
     id="path2-6" />
</svg>
