<?xml version="1.0" encoding="UTF-8" standalone="no"?>
<!-- Uploaded to: SVG Repo, www.svgrepo.com, Generator: SVG Repo Mixer Tools -->

<svg
   width="1200"
   height="130"
   viewBox="0 0 35.999999 3.9"
   fill="none"
   version="1.1"
   id="svg1"
   xmlns="http://www.w3.org/2000/svg"
   xmlns:svg="http://www.w3.org/2000/svg">
  <defs
     id="defs1" />
  <path
     style="fill:#ff1515;fill-opacity:1;stroke:#ff0e1d;stroke-width:0;stroke-linecap:round;stroke-linejoin:bevel"
     d="m 3.4086505,2.7681117 c -0.0048,0.031197 -0.018768,0.059661 -0.040681,0.08289 -0.05379,0.05702 -0.1443065,0.072817 -0.3398081,0.059303 -0.056952,-0.00394 -0.1117484,-0.00878 -0.2443038,-0.021573 -0.1531071,-0.014782 -0.1744255,-0.01649 -0.2060392,-0.01651 -0.044422,-2.76e-5 -0.070891,0.00582 -0.1028287,0.022722 -0.030998,0.016404 -0.045843,0.028179 -0.1817281,0.1441557 C 2.114162,3.1919585 2.0614795,3.2345116 2.0018896,3.2744483 1.9277443,3.3241398 1.877868,3.3437964 1.8262657,3.343663 1.7467647,3.3434575 1.6890381,3.2951112 1.6475688,3.1940034 1.6187477,3.1237336 1.5972622,3.0440301 1.5446848,2.8123402 1.5109188,2.6635466 1.5070718,2.6477592 1.4973818,2.6182215 1.4802248,2.5659225 1.4584528,2.5384435 1.4075728,2.5048703 1.3852418,2.4901343 1.3605258,2.4760113 1.2002989,2.3864264 0.97969882,2.2630859 0.90660492,2.216048 0.85283843,2.1628259 0.81053533,2.1209509 0.79146483,2.0851809 0.78817633,2.0415396 c -0.005358,-0.0711 0.0431728,-0.1352829 0.16193205,-0.2141619 0.0629934,-0.04184 0.11386492,-0.071566 0.30415322,-0.1777289 0.056661,-0.031611 0.1148841,-0.064581 0.1293852,-0.073265 0.077145,-0.046201 0.099846,-0.075029 0.1215508,-0.1543551 0.00428,-0.015629 0.021619,-0.089345 0.03854,-0.1638131 0.034918,-0.1536726 0.056728,-0.2426212 0.072414,-0.29532304 0.04451,-0.1495422 0.091378,-0.2145905 0.1698873,-0.2357862 0.024093,-0.0065 0.060033,-0.00613 0.086734,9.055e-4 0.048579,0.012801 0.1021208,0.04224 0.1727065,0.094957 0.056721,0.042362 0.1092944,0.0857487 0.2586011,0.21341464 0.1427508,0.1220602 0.1612731,0.1356213 0.2033618,0.1488912 0.03847,0.012129 0.075199,0.011855 0.2136224,-0.00159 0.2759704,-0.026811 0.3332448,-0.03111 0.4169843,-0.031295 0.063817,-1.444e-4 0.088271,0.00159 0.1225423,0.0087 0.074055,0.015355 0.1210764,0.051623 0.1405219,0.1083863 0.020586,0.060091 0.00743,0.1340904 -0.048318,0.2717001 -0.022981,0.056727 -0.047029,0.1104475 -0.133347,0.2978709 -0.058419,0.1268475 -0.067663,0.1533873 -0.067663,0.1942655 0,0.041263 0.00818,0.064435 0.070672,0.2001526 0.1264004,0.2745215 0.1552844,0.3439116 0.1754305,0.4214496 0.01063,0.040915 0.014928,0.086114 0.010763,0.1131942 z"
     id="path2" />
  <path
     style="fill:#000000;fill-opacity:1;stroke:#ff0e1d;stroke-width:0;stroke-linecap:round;stroke-linejoin:bevel"
     d="m 4.2387879,0.33688692 c 0.00197,-0.01281 0.00771,-0.024499 0.016705,-0.034037 0.022088,-0.023414 0.059256,-0.0299 0.1395343,-0.024351 0.023386,0.00162 0.045887,0.00361 0.1003176,0.00886 0.06287,0.00607 0.071624,0.00677 0.084605,0.00678 0.018241,1.14e-5 0.02911,-0.00239 0.042224,-0.00933 0.012729,-0.00674 0.018824,-0.011571 0.074622,-0.059194 0.073543,-0.062768 0.095176,-0.080242 0.1196451,-0.096641 0.030446,-0.020405 0.050927,-0.028476 0.072116,-0.028422 0.032645,8.43e-5 0.056349,0.019937 0.073378,0.061454 0.011834,0.028855 0.020657,0.061583 0.042247,0.1567211 0.013865,0.061099 0.015445,0.067581 0.019424,0.07971 0.00705,0.021476 0.015985,0.032759 0.036878,0.046545 0.00917,0.00605 0.019319,0.01185 0.085112,0.048637 0.090584,0.050647 0.1205986,0.069962 0.1426765,0.091816 0.017371,0.017193 0.025202,0.031885 0.026552,0.049803 0.0022,0.029196 -0.017728,0.055551 -0.066494,0.087941 -0.025867,0.017181 -0.046756,0.029389 -0.1248935,0.07298 -0.023267,0.01298 -0.047175,0.026518 -0.053129,0.030087 -0.031678,0.018971 -0.040999,0.030809 -0.049912,0.063382 -0.00176,0.00642 -0.00888,0.036689 -0.015825,0.067266 -0.014338,0.063102 -0.023294,0.099627 -0.029735,0.12126758 -0.018277,0.061406 -0.037522,0.088117 -0.06976,0.09682 -0.00989,0.00267 -0.024651,0.0025 -0.035615,-3.721e-4 -0.019948,-0.00526 -0.041933,-0.017345 -0.070918,-0.038993 -0.023291,-0.017394 -0.044879,-0.035211 -0.1061885,-0.087633 -0.058617,-0.050121 -0.066223,-0.05569 -0.083506,-0.061139 -0.015797,-0.00498 -0.030879,-0.00487 -0.087719,6.584e-4 -0.1133207,0.011009 -0.1368391,0.012775 -0.1712248,0.012852 -0.026205,5.95e-5 -0.036246,-6.5838e-4 -0.050319,-0.00357 -0.030409,-0.0063 -0.049717,-0.021196 -0.057702,-0.044506 -0.00845,-0.024674 -0.00305,-0.055061 0.01984,-0.1115673 0.00944,-0.023293 0.019311,-0.045351 0.054756,-0.1223122 0.023988,-0.052087 0.027784,-0.062985 0.027784,-0.07977 0,-0.016943 -0.00336,-0.026461 -0.02902,-0.082188 C 4.2633406,0.4437156 4.2514796,0.4152222 4.2432066,0.383383 4.2388366,0.366582 4.2370766,0.348022 4.2387866,0.336903 Z"
     id="path2-2" />
</svg>
